<?xml version="1.0" encoding="iso-8859-1"?>
<!-- Generator: Adobe Illustrator 18.1.1, SVG Export Plug-In . SVG Version: 6.00 Build 0)  -->
<svg version="1.1" id="Capa_1" xmlns="http://www.w3.org/2000/svg" xmlns:xlink="http://www.w3.org/1999/xlink" x="0px" y="0px"
	 viewBox="0 0 32.787 32.787" style="enable-background:new 0 0 32.787 32.787;" xml:space="preserve">
<g>
	<path style="fill:#EFC75E;" d="M21.627,17.145c1.596-1.705,2.195-4.227,1.336-6.564c-0.619-1.678-1.873-2.938-3.391-3.611
		c0.057-0.33,0.092-0.668,0.092-1.016c0-3.29-2.636-5.954-5.89-5.954S7.886,2.664,7.886,5.953c0,1.25,0.381,2.406,1.031,3.365
		c-0.942,1.112-1.51,2.543-1.51,4.112c0,2.49,1.431,4.648,3.516,5.699v2.877c0,0,2.263,0.182,2.263,1.568
		c0,0.963-1.166,1.35-1.833,1.732c-0.293,0.168-0.951,0.525-0.013,1.014c0.504,0.268,1.788,0.586,1.788,1.836
		c0,1.252-2.084,1.85-2.084,1.85l2.782,2.781l2.801-2.799v-9.93l0.645,1.76c0,0,2.188-0.615,2.666,0.686
		c0.332,0.904-0.627,1.674-1.121,2.26c-0.217,0.26-0.713,0.824,0.338,0.957c0.564,0.076,1.881-0.066,2.312,1.105
		c0.432,1.176-1.318,2.455-1.318,2.455l3.572,1.648l1.66-3.594L21.627,17.145z M13.776,0.957c2.729,0,4.939,2.238,4.939,4.996
		c0,0.236-0.035,0.461-0.066,0.686c-1.232-0.332-2.576-0.307-3.865,0.166c-0.221,0.08-0.428,0.174-0.633,0.273
		c-0.127-0.006-0.248-0.017-0.375-0.017c-1.596,0-3.048,0.592-4.167,1.561C9.124,7.848,8.833,6.936,8.833,5.953
		C8.833,3.195,11.046,0.957,13.776,0.957z M15.09,12.66h-2.742c0.016-0.305,0.064-0.604,0.141-0.896
		c0.412,0.092,0.844,0.146,1.285,0.146c1.383,0,2.65-0.486,3.654-1.291c0.238,0.293,0.432,0.619,0.592,0.963L15.09,12.66z
		 M14.541,8.928c0.828,0.137,1.584,0.484,2.205,0.996c-0.828,0.633-1.85,1.025-2.971,1.025c-0.328,0-0.645-0.035-0.955-0.098
		C13.198,10.076,13.78,9.402,14.541,8.928z M11.173,10.186c-0.127-0.082-0.248-0.17-0.369-0.262
		c0.242-0.199,0.507-0.365,0.785-0.512C11.433,9.66,11.294,9.918,11.173,10.186z M17.942,8.621c-0.156-0.135-0.32-0.264-0.486-0.383
		c0.215,0.021,0.428,0.053,0.635,0.102C18.039,8.434,17.996,8.533,17.942,8.621z M9.163,12.66c0.146-0.762,0.488-1.455,0.957-2.039
		c0.229,0.182,0.469,0.348,0.725,0.494c-0.137,0.502-0.213,1.018-0.223,1.545C10.622,12.66,9.163,12.66,9.163,12.66z M19.653,10.982
		c-0.252-0.611-0.602-1.168-1.021-1.664c0.145-0.209,0.27-0.43,0.385-0.656c0.824,0.385,1.543,0.994,2.033,1.807L19.653,10.982z"/>
</g>
</svg>
