<?xml version="1.0" encoding="iso-8859-1"?>
<!-- Generator: Adobe Illustrator 18.0.0, SVG Export Plug-In . SVG Version: 6.00 Build 0)  -->
<!DOCTYPE svg PUBLIC "-//W3C//DTD SVG 1.1//EN" "http://www.w3.org/Graphics/SVG/1.1/DTD/svg11.dtd">
<svg version="1.1" id="Capa_1" xmlns="http://www.w3.org/2000/svg" xmlns:xlink="http://www.w3.org/1999/xlink" x="0px" y="0px"
	 viewBox="0 0 54 54" style="enable-background:new 0 0 54 54;" xml:space="preserve">
<g>
	<g>
		<path style="fill:#9B507E;" d="M27,1L27,1c14.359,0,26,11.641,26,26v0c0,14.359-11.641,26-26,26h0C12.641,53,1,41.359,1,27v0
			C1,12.641,12.641,1,27,1z"/>
		<path style="fill:#9B507E;" d="M27,54C12.112,54,0,41.888,0,27S12.112,0,27,0s27,12.112,27,27S41.888,54,27,54z M27,2
			C13.215,2,2,13.215,2,27s11.215,25,25,25s25-11.215,25-25S40.785,2,27,2z"/>
	</g>
	<path style="fill:#FFFFFF;" d="M27,40.5c-0.552,0-1-0.447-1-1v-26c0-0.553,0.448-1,1-1s1,0.447,1,1v26
		C28,40.053,27.552,40.5,27,40.5z"/>
	<polygon style="fill:#FFFFFF;" points="27,41.914 16.293,31.207 17.707,29.793 27,39.086 36.293,29.793 37.707,31.207 	"/>
</g>
</svg>
