<?xml version="1.0" encoding="iso-8859-1"?>
<!-- Generator: Adobe Illustrator 19.0.0, SVG Export Plug-In . SVG Version: 6.00 Build 0)  -->
<svg version="1.1" id="Layer_1" xmlns="http://www.w3.org/2000/svg" xmlns:xlink="http://www.w3.org/1999/xlink" x="0px" y="0px"
	 viewBox="0 0 511.997 511.997" style="enable-background:new 0 0 511.997 511.997;" xml:space="preserve">
<g>
	<g>
		<path d="M456.026,263.284h-12.068l-0.004-163.922c0-23.114-18.805-41.919-41.919-41.919H257.599
			c-9.513,0-17.909-5.721-21.387-14.577l-6.394-16.276C223.47,10.437,208.157,0,190.801,0h-80.84
			C86.847,0,68.043,18.805,68.043,41.919v199.268c0,5.23,4.239,9.47,9.47,9.47c5.231,0,9.47-4.24,9.47-9.47v-57.711
			c0-12.667,10.305-22.974,22.972-22.974h80.849c9.509,0,17.905,5.724,21.386,14.574l6.392,16.285
			c6.353,16.142,21.667,26.572,39.012,26.572h144.438c12.651,0,22.944,10.272,22.984,22.914v22.434H55.971
			c-5.231,0-9.47,4.24-9.47,9.47v180.565c0,5.23,4.239,9.47,9.47,9.47c5.231,0,9.47-4.24,9.47-9.47V282.222h381.114v210.835H65.442
			v-12.382c0-5.23-4.239-9.47-9.47-9.47c-5.231,0-9.47,4.24-9.47,9.47v21.852c0,5.23,4.239,9.47,9.47,9.47h400.055
			c5.231,0,9.47-4.24,9.47-9.47V272.755C465.496,267.525,461.257,263.284,456.026,263.284z M425.014,135.111
			c-6.605-4.346-14.502-6.884-22.984-6.884h-23.126c-5.231,0-9.47,4.24-9.47,9.47c0,5.23,4.239,9.47,9.47,9.47h23.126
			c12.651,0,22.944,10.267,22.984,22.9v35.814c-6.605-4.346-14.501-6.885-22.982-6.885H257.594c-9.508,0-17.904-5.719-21.385-14.56
			l-6.391-16.282c-6.35-16.152-21.664-26.591-39.013-26.591h-80.849c-8.478,0-16.37,2.538-22.972,6.883v-35.751
			c0-12.667,10.305-22.974,22.972-22.974h80.849c9.509,0,17.905,5.724,21.386,14.574l6.391,16.282
			c6.35,16.152,21.664,26.59,39.012,26.59h92.691c5.231,0,9.47-4.24,9.47-9.47c0-5.23-4.239-9.47-9.47-9.47h-92.691
			c-9.509,0-17.904-5.723-21.385-14.574l-6.391-16.282c-6.35-16.152-21.664-26.591-39.013-26.591h-80.849
			c-8.478,0-16.37,2.538-22.972,6.883V41.919c0-12.67,10.307-22.979,22.977-22.979h80.84c9.513,0,17.909,5.721,21.388,14.577
			l6.394,16.276c6.345,16.154,21.66,26.591,39.015,26.591h144.438c12.67,0,22.979,10.309,22.979,22.979V135.111z"/>
	</g>
</g>
<g>
	<g>
		<path d="M229.348,425.75l-12.811-29.44c-0.01-0.024-0.02-0.048-0.032-0.072l-23.212-53.337c-1.504-3.456-4.914-5.691-8.684-5.691
			c-3.768,0-7.18,2.236-8.684,5.691l-23.208,53.33c-0.013,0.029-0.025,0.057-0.037,0.085l-12.81,29.435
			c-2.087,4.796,0.109,10.376,4.904,12.463c1.229,0.537,2.512,0.789,3.773,0.789c3.655,0,7.137-2.129,8.689-5.693l10.388-23.87
			h33.968l10.388,23.87c2.086,4.796,7.665,6.99,12.463,4.904C229.24,436.126,231.436,430.546,229.348,425.75z M175.867,390.499
			l8.742-20.086l8.74,20.086H175.867z"/>
	</g>
</g>
<g>
	<g>
		<path d="M367.134,402.066c-4.815-2.037-10.374,0.215-12.411,5.033c-3.331,7.874-11.007,12.963-19.555,12.963
			c-11.701,0-21.221-9.519-21.221-21.221v-22.394c0-11.703,9.519-21.221,21.22-21.221c7.061,0,13.641,3.5,17.601,9.363
			c2.926,4.334,8.816,5.473,13.148,2.546c4.335-2.928,5.474-8.815,2.547-13.148c-7.489-11.083-19.935-17.699-33.296-17.699
			c-22.145,0-40.161,18.016-40.161,40.16v22.394c0,22.145,18.016,40.161,40.161,40.161c16.176,0,30.699-9.627,37-24.525
			C374.203,409.66,371.949,404.104,367.134,402.066z"/>
	</g>
</g>
<g>
	<g>
		<path d="M271.911,380.623h-25.254c-5.231,0-9.47,4.24-9.47,9.47c0,5.23,4.239,9.47,9.47,9.47h25.254c5.231,0,9.47-4.24,9.47-9.47
			C281.381,384.863,277.143,380.623,271.911,380.623z"/>
	</g>
</g>
</svg>
