<?xml version="1.0" encoding="iso-8859-1"?>
<!-- Generator: Adobe Illustrator 19.0.0, SVG Export Plug-In . SVG Version: 6.00 Build 0)  -->
<svg version="1.1" id="Capa_1" xmlns="http://www.w3.org/2000/svg" xmlns:xlink="http://www.w3.org/1999/xlink" x="0px" y="0px"
	 viewBox="0 0 512.002 512.002" style="enable-background:new 0 0 512.002 512.002;" xml:space="preserve">
<path style="fill:#A5DC69;" d="M156.038,502.001h-16c-11.046,0-20-8.954-20-20l0,0c0-11.046,8.954-20,20-20h16
	c11.046,0,20,8.954,20,20l0,0C176.038,493.047,167.084,502.001,156.038,502.001z"/>
<g>
	<polygon style="fill:#F5B955;" points="502.001,25.027 445.479,25.027 439.108,10.001 383.812,10.001 377.441,25.027 
		362.001,25.027 362.001,130.001 502.001,130.001 	"/>
	<polygon style="fill:#F5B955;" points="502.001,173.027 445.479,173.027 439.108,158.001 383.812,158.001 377.441,173.027 
		362.001,173.027 362.001,278.001 502.001,278.001 	"/>
	<polygon style="fill:#F5B955;" points="502.001,325.001 445.479,325.001 439.108,309.976 383.812,309.976 377.441,325.001 
		362.001,325.001 362.001,429.976 502.001,429.976 	"/>
</g>
<path style="fill:#78D2FA;" d="M286.077,218.001L286.077,218.001c0,30.928-25.072,56-56,56H66c-30.928,0-56-25.072-56-56l0,0
	c0-30.928,25.072-56,56-56h164.077C261.005,162.001,286.077,187.074,286.077,218.001z"/>
<path style="fill:#AAE6FF;" d="M286.077,106.001L286.077,106.001c0,30.928-25.072,56-56,56H66c-30.928,0-56-25.072-56-56l0,0
	c0-30.928,25.072-56,56-56h164.077C261.005,50.001,286.077,75.074,286.077,106.001z"/>
<path style="fill:#4BB9F5;" d="M286.077,330.001L286.077,330.001c0,30.928-25.072,56-56,56H66c-30.928,0-56-25.072-56-56l0,0
	c0-30.928,25.072-56,56-56h164.077C261.005,274.001,286.077,299.074,286.077,330.001z"/>
<path d="M465.668,472.001h-281.35c-3.915-11.038-14.116-19.121-26.28-19.926v-56.074h49.014v33.975c0,5.522,4.478,10,10,10h109.282
	c5.522,0,10-4.478,10-10s-4.478-10-10-10h-99.282v-23.975h3.025c36.393,0,66-29.607,66-66c0-23.597-12.456-44.33-31.13-56
	c15.43-9.643,26.599-25.476,30.017-44h31.37c5.522,0,10-4.478,10-10s-4.478-10-10-10h-30.759c-2.458-20.235-14.098-37.67-30.628-48
	c18.674-11.67,31.13-32.403,31.13-56c0-36.393-29.607-66-66-66h-3.025v-20h59.025c5.522,0,10-4.478,10-10s-4.478-10-10-10h-69.025
	c-5.522,0-10,4.478-10,10v30H66c-36.393,0-66,29.608-66,66c0,23.597,12.456,44.33,31.13,56C12.456,173.672,0,194.404,0,218.001
	s12.456,44.33,31.13,56C12.456,285.672,0,306.404,0,330.001c0,36.393,29.607,66,66,66h72.038v56.074
	c-12.163,0.805-22.365,8.887-26.28,19.926H10.001c-5.522,0-10,4.478-10,10s4.478,10,10,10h101.757c4.128,11.639,15.243,20,28.28,20
	h16c13.036,0,24.152-8.361,28.28-20h281.35c5.522,0,10-4.478,10-10S471.19,472.001,465.668,472.001z M20,106.001
	c0-25.364,20.636-46,46-46h164.077c25.364,0,46,20.636,46,46s-20.636,46-46,46H66C40.636,152.001,20,131.366,20,106.001z
	 M20,218.001c0-25.364,20.636-46,46-46h164.077c25.364,0,46,20.636,46,46s-20.636,46-46,46H66C40.636,264.001,20,243.366,20,218.001
	z M20,330.001c0-25.364,20.636-46,46-46h164.077c25.364,0,46,20.636,46,46s-20.636,46-46,46H66
	C40.636,376.001,20,355.366,20,330.001z M156.038,492.001h-16c-5.514,0-10-4.486-10-10s4.486-10,10-10h16c5.514,0,10,4.486,10,10
	S161.552,492.001,156.038,492.001z"/>
<path d="M502.001,472.001c-2.63,0-5.21,1.069-7.07,2.93s-2.93,4.44-2.93,7.07s1.069,5.21,2.93,7.069
	c1.86,1.86,4.44,2.931,7.07,2.931s5.21-1.07,7.069-2.931c1.86-1.859,2.931-4.439,2.931-7.069s-1.07-5.21-2.931-7.07
	C507.211,473.071,504.631,472.001,502.001,472.001z"/>
<path d="M502.001,15.027h-49.899l-3.787-8.929c-1.567-3.696-5.192-6.097-9.207-6.097h-55.297c-4.015,0-7.64,2.4-9.207,6.097
	l-3.786,8.929h-8.817c-5.522,0-10,4.478-10,10v104.974c0,5.522,4.478,10,10,10h140c5.522,0,10-4.478,10-10V25.027
	C512.001,19.504,507.523,15.027,502.001,15.027z M492.001,120.001h-120V35.027h5.439c4.015,0,7.64-2.4,9.207-6.097l3.787-8.929
	h42.053l3.786,8.929c1.567,3.696,5.192,6.097,9.207,6.097h46.521V120.001z"/>
<path d="M502.001,163.027h-49.899l-3.787-8.929c-1.566-3.696-5.191-6.097-9.206-6.097h-55.297c-4.015,0-7.64,2.4-9.207,6.097
	l-3.786,8.929h-8.817c-5.522,0-10,4.478-10,10v104.974c0,5.522,4.478,10,10,10h140c5.522,0,10-4.478,10-10V173.027
	C512.001,167.504,507.523,163.027,502.001,163.027z M492.001,268.001h-120v-84.975h5.439c4.015,0,7.64-2.4,9.207-6.097l3.786-8.929
	h42.053l3.786,8.929c1.567,3.696,5.192,6.097,9.207,6.097H492L492.001,268.001L492.001,268.001z"/>
<path d="M502.001,315.001h-49.899l-3.787-8.929c-1.566-3.696-5.191-6.097-9.206-6.097h-55.297c-4.015,0-7.64,2.4-9.207,6.097
	l-3.787,8.929h-8.817c-5.522,0-10,4.478-10,10v104.975c0,5.522,4.478,10,10,10h140c5.522,0,10-4.478,10-10V325.001
	C512.001,319.479,507.523,315.001,502.001,315.001z M492.001,419.976h-120v-84.975h5.439c4.015,0,7.64-2.4,9.207-6.097l3.786-8.929
	h42.053l3.786,8.929c1.567,3.696,5.192,6.097,9.207,6.097H492L492.001,419.976L492.001,419.976z"/>
<path d="M241.884,332.001c0-5.522-4.478-10-10-10h-29.665c-5.522,0-10,4.478-10,10s4.478,10,10,10h29.665
	C237.406,342.001,241.884,337.524,241.884,332.001z"/>
<path d="M110.171,322.001c-2.63,0-5.21,1.069-7.07,2.93c-1.859,1.86-2.93,4.44-2.93,7.07s1.07,5.21,2.93,7.069
	c1.86,1.86,4.44,2.931,7.07,2.931c2.64,0,5.21-1.07,7.07-2.931c1.869-1.859,2.939-4.439,2.939-7.069s-1.07-5.21-2.939-7.07
	C115.381,323.071,112.811,322.001,110.171,322.001z"/>
<path d="M156.291,322.001c-2.641,0-5.21,1.069-7.07,2.93s-2.93,4.44-2.93,7.07s1.069,5.21,2.93,7.069
	c1.86,1.86,4.43,2.931,7.07,2.931c2.63,0,5.21-1.07,7.069-2.931c1.86-1.859,2.931-4.439,2.931-7.069s-1.07-5.21-2.931-7.07
	C161.501,323.071,158.921,322.001,156.291,322.001z"/>
<path d="M71.001,322.001c-2.63,0-5.21,1.069-7.07,2.93s-2.93,4.44-2.93,7.07s1.069,5.21,2.93,7.069c1.86,1.86,4.44,2.931,7.07,2.931
	s5.21-1.07,7.069-2.931c1.86-1.859,2.931-4.439,2.931-7.069s-1.07-5.21-2.931-7.07C76.211,323.071,73.631,322.001,71.001,322.001z"
	/>
<path d="M241.884,220.001c0-5.522-4.478-10-10-10h-29.665c-5.522,0-10,4.478-10,10s4.478,10,10,10h29.665
	C237.406,230.001,241.884,225.524,241.884,220.001z"/>
<path d="M110.171,210.001c-2.63,0-5.21,1.069-7.07,2.93c-1.859,1.86-2.93,4.44-2.93,7.07s1.07,5.21,2.93,7.069
	c1.86,1.86,4.44,2.931,7.07,2.931c2.64,0,5.21-1.07,7.07-2.931c1.869-1.859,2.939-4.439,2.939-7.069s-1.07-5.21-2.939-7.07
	C115.381,211.071,112.811,210.001,110.171,210.001z"/>
<path d="M156.291,210.001c-2.641,0-5.21,1.069-7.07,2.93s-2.93,4.44-2.93,7.07s1.069,5.21,2.93,7.069
	c1.86,1.86,4.43,2.931,7.07,2.931c2.63,0,5.21-1.07,7.069-2.931c1.86-1.859,2.931-4.439,2.931-7.069s-1.07-5.21-2.931-7.07
	C161.501,211.071,158.921,210.001,156.291,210.001z"/>
<path d="M71.001,210.001c-2.63,0-5.21,1.069-7.07,2.93s-2.93,4.44-2.93,7.07s1.069,5.21,2.93,7.069c1.86,1.86,4.44,2.931,7.07,2.931
	s5.21-1.07,7.069-2.931c1.86-1.859,2.931-4.439,2.931-7.069s-1.07-5.21-2.931-7.07C76.211,211.071,73.631,210.001,71.001,210.001z"
	/>
<path d="M241.884,108.001c0-5.522-4.478-10-10-10h-29.665c-5.522,0-10,4.478-10,10s4.478,10,10,10h29.665
	C237.406,118.001,241.884,113.524,241.884,108.001z"/>
<path d="M110.171,98.001c-2.63,0-5.21,1.069-7.07,2.93c-1.859,1.86-2.93,4.44-2.93,7.07s1.07,5.21,2.93,7.069
	c1.86,1.86,4.44,2.931,7.07,2.931c2.64,0,5.21-1.07,7.07-2.931c1.869-1.859,2.939-4.439,2.939-7.069s-1.07-5.21-2.939-7.07
	C115.381,99.071,112.811,98.001,110.171,98.001z"/>
<path d="M71.001,98.001c-2.63,0-5.21,1.069-7.07,2.93s-2.93,4.44-2.93,7.07s1.069,5.21,2.93,7.069c1.86,1.86,4.44,2.931,7.07,2.931
	s5.21-1.07,7.069-2.931c1.86-1.859,2.931-4.439,2.931-7.069s-1.07-5.21-2.931-7.07C76.211,99.071,73.631,98.001,71.001,98.001z"/>
<path d="M156.291,98.001c-2.641,0-5.21,1.069-7.07,2.93s-2.93,4.44-2.93,7.07s1.069,5.21,2.93,7.069
	c1.86,1.86,4.43,2.931,7.07,2.931c2.63,0,5.21-1.07,7.069-2.931c1.86-1.859,2.931-4.439,2.931-7.069s-1.07-5.21-2.931-7.07
	C161.501,99.071,158.921,98.001,156.291,98.001z"/>
<path d="M326.331,20.001c2.63,0,5.21-1.07,7.069-2.931c1.87-1.859,2.931-4.439,2.931-7.069s-1.061-5.21-2.931-7.07
	c-1.859-1.86-4.43-2.93-7.069-2.93c-2.63,0-5.21,1.069-7.07,2.93s-2.93,4.44-2.93,7.07s1.069,5.21,2.93,7.069
	C321.121,18.931,323.701,20.001,326.331,20.001z"/>
</svg>
