<?xml version="1.0" encoding="UTF-8" standalone="no"?>
<!-- Created with Inkscape (http://www.inkscape.org/) -->

<svg
   xmlns:dc="http://purl.org/dc/elements/1.1/"
   xmlns:cc="http://creativecommons.org/ns#"
   xmlns:rdf="http://www.w3.org/1999/02/22-rdf-syntax-ns#"
   xmlns:svg="http://www.w3.org/2000/svg"
   xmlns="http://www.w3.org/2000/svg"
   xmlns:xlink="http://www.w3.org/1999/xlink"
   xmlns:sodipodi="http://sodipodi.sourceforge.net/DTD/sodipodi-0.dtd"
   xmlns:inkscape="http://www.inkscape.org/namespaces/inkscape"
   id="svg3961"
   sodipodi:docname="SQLite_icon.svg"
   viewBox="0 0 384.29 511.43"
   version="1.1"
   inkscape:version="0.91+devel r">
  <defs
     id="defs3963">
    <linearGradient
       id="linearGradient3807">
      <stop
         id="stop3809"
         style="stop-color:#e3e3e3"
         offset="0" />
      <stop
         id="stop3811"
         style="stop-color:#66647b;stop-opacity:.89804"
         offset="1" />
    </linearGradient>
    <radialGradient
       id="radialGradient4100"
       xlink:href="#linearGradient3807"
       gradientUnits="userSpaceOnUse"
       cy="287.71"
       cx="376.02"
       gradientTransform="matrix(1.0132 -.0097151 .0035796 .37336 -19.591 188.17)"
       r="182.64"
       inkscape:collect="always" />
    <linearGradient
       id="linearGradient4656"
       y2="362.36"
       xlink:href="#linearGradient3807"
       spreadMethod="reflect"
       gradientUnits="userSpaceOnUse"
       x2="559.07"
       gradientTransform="translate(-13.571 7.8572)"
       y1="362.36"
       x1="425.67"
       inkscape:collect="always" />
  </defs>
  <sodipodi:namedview
     id="base"
     fit-margin-left="10"
     inkscape:zoom="1.4"
     borderopacity="1.0"
     inkscape:current-layer="layer1"
     inkscape:cx="175.35756"
     inkscape:cy="244.5418"
     inkscape:snap-page="true"
     inkscape:window-maximized="1"
     showgrid="false"
     fit-margin-right="10"
     inkscape:document-units="px"
     bordercolor="#666666"
     inkscape:window-x="0"
     inkscape:window-y="0"
     fit-margin-bottom="10"
     inkscape:window-width="1920"
     inkscape:pageopacity="0.0"
     inkscape:pageshadow="2"
     pagecolor="#ffffff"
     inkscape:window-height="1026"
     fit-margin-top="10" />
  <g
     id="layer1"
     inkscape:label="Layer 1"
     inkscape:groupmode="layer"
     transform="translate(-173.57 -219.51)">
    <use
       id="use3823"
       xlink:href="#path2985"
       transform="translate(-7.1429e-7 320)"
       height="1052.3622"
       width="744.09448"
       y="0"
       x="0" />
    <use
       id="use3825"
       xlink:href="#path2997"
       transform="translate(-7.1429e-7 320)"
       height="1052.3622"
       width="744.09448"
       y="0"
       x="0" />
    <use
       id="use3827"
       xlink:href="#path2985"
       transform="translate(-7.1429e-7 240)"
       height="1052.3622"
       width="744.09448"
       y="0"
       x="0" />
    <use
       id="use3829"
       xlink:href="#path2997"
       transform="translate(-7.1429e-7 240)"
       height="1052.3622"
       width="744.09448"
       y="0"
       x="0" />
    <use
       id="use3819"
       xlink:href="#path2985"
       transform="translate(-7.1429e-7 160)"
       height="1052.3622"
       width="744.09448"
       y="0"
       x="0" />
    <use
       id="use3821"
       xlink:href="#path2997"
       transform="translate(-7.1429e-7 160)"
       height="1052.3622"
       width="744.09448"
       y="0"
       x="0" />
    <use
       id="use3815"
       xlink:href="#path2985"
       transform="translate(-7.1429e-7 80)"
       height="1052.3622"
       width="744.09448"
       y="0"
       x="0" />
    <use
       id="use3817"
       xlink:href="#path2997"
       transform="translate(-7.1429e-7 80)"
       height="1052.3622"
       width="744.09448"
       y="0"
       x="0" />
    <path
       id="path2985"
       style="fill:url(#radialGradient4100)"
       inkscape:connector-curvature="0"
       d="m547.86 290.22c0 33.532-81.548 60.714-182.14 60.714s-182.14-27.183-182.14-60.714c0-33.532 81.548-60.714 182.14-60.714s182.14 27.183 182.14 60.714z" />
    <path
       id="path2997"
       sodipodi:nodetypes="csccscc"
       style="fill:url(#linearGradient4656)"
       inkscape:connector-curvature="0"
       d="m183.57 289.51c0 33.532 81.548 60.714 182.14 60.714s182.14-27.183 182.14-60.714v50c0 33.532-81.548 60.714-182.14 60.714s-182.14-27.183-182.14-60.714z" />
    <g
       id="g3419"
       style="fill:#4169e1;stroke:#000000;stroke-width:1">
      <path
         id="path3788"
         transform="translate(173.57,219.51)"
         d="M 217.65625 450.10742 C 215.93645 450.18783 214.21142 450.26384 212.47656 450.32812 C 223.24311 464.16776 239.51158 483.93775 254.13867 497.09961 C 254.46836 497.05983 254.8001 497.02282 255.12891 496.98242 C 253.76883 495.32573 252.42462 493.65328 251.09766 491.95898 C 239.51106 477.96136 228.32382 464.00992 217.65625 450.10742 z "
         clip-path="none"
         style="fill:#4169e1;stroke:#000000;stroke-width:1" />
      <path
         id="path3363"
         transform="translate(173.57,219.51)"
         d="M 119.80078 365.72656 C 121.0841 367.69951 122.39311 369.65582 123.74023 371.58984 C 123.74023 371.58984 144.70881 362.84584 166.99023 380.73438 C 146.71285 369.61954 129.83789 379.89844 129.83789 379.89844 C 132.21004 382.9832 134.67015 386.01165 137.2207 388.97852 C 137.39532 388.63543 152.10589 377.271 171.65625 388.91211 C 147.5148 385.08603 141.86133 393.94141 141.86133 393.94141 C 145.9468 398.40005 150.04862 402.76147 154.57031 406.9082 C 154.57031 406.9082 168.09175 406.51745 186.11719 420.66406 C 188.12144 420.68582 190.12051 420.71484 192.14062 420.71484 C 193.38846 420.71484 194.61947 420.69192 195.86133 420.68359 C 183.76419 403.67177 172.65277 386.74516 162.79492 369.91797 C 147.76614 369.10623 133.35826 367.68486 119.80078 365.72656 z M 175.84766 370.45898 C 184.92922 387.02829 194.85511 403.73434 205.35938 420.53711 C 205.85551 420.52523 206.35068 420.5132 206.8457 420.5 C 198.03823 397.00483 196.99238 380.90319 198.17578 370.66406 C 196.16766 370.6859 194.16467 370.71484 192.14062 370.71484 C 186.64547 370.71484 181.21896 370.61782 175.84766 370.45898 z "
         clip-path="none"
         style="fill:#4169e1;stroke:#000000;stroke-width:1" />
      <path
         id="path3365"
         transform="translate(173.57,219.51)"
         d="M 84.451172 278.23633 C 88.409747 296.77919 94.068267 314.82448 101.60742 331.95508 C 115.26883 334.5698 130.02438 336.61687 145.61719 337.98633 C 137.06446 320.44149 130.10243 303.0172 125.07227 285.72656 C 110.51953 283.80352 96.882285 281.27978 84.451172 278.23633 z M 138.17578 287.2832 C 143.94106 304.30258 151.2057 321.56299 159.61523 339.00977 C 164.39784 339.29733 169.23017 339.53484 174.13477 339.69531 C 177.44391 312.66054 188.02734 310.16602 188.02734 310.16602 C 186.23126 303.64008 184.48948 296.79646 182.95898 289.91602 C 167.44031 289.65916 152.43405 288.75556 138.17578 287.2832 z M 192.24414 324.66406 C 192.24414 324.66406 184.35929 325.70627 178.42188 339.80469 C 182.95579 339.91736 187.5203 339.99414 192.14062 339.99414 C 193.82275 339.99414 195.48507 339.96628 197.15625 339.95117 C 195.65871 335.48876 193.98974 330.36844 192.24414 324.66406 z "
         clip-path="none"
         style="fill:#4169e1;stroke:#000000;stroke-width:1" />
      <path
         id="path3367"
         transform="translate(173.57,219.51)"
         d="M 80.242188 197.16602 C 78.025256 214.57911 77.979722 232.42315 79.423828 246.95117 C 91.245913 250.06137 104.24367 252.69314 118.17188 254.75977 C 115.61191 237.88981 115.12938 221.15995 117.01562 204.58594 C 103.8436 202.59459 91.51548 200.09725 80.242188 197.16602 z M 123.25781 205.48828 C 123.24485 222.09441 125.39084 239.04596 129.33398 256.28711 C 144.76246 258.17645 161.18567 259.36937 178.25 259.79883 C 176.64736 243.96701 175.70429 226.55082 174.08398 209.69336 C 156.25724 209.10845 139.19972 207.66144 123.25781 205.48828 z "
         clip-path="none"
         style="fill:#4169e1;stroke:#000000;stroke-width:1" />
      <path
         id="path3369"
         transform="translate(173.57,219.51)"
         d="M 127.29883 128.06836 C 121.76882 127.98226 116.79011 129.16013 112.33203 131.37109 L 112.32812 131.36133 C 99.981302 137.48455 91.593152 151.55092 86.244141 168.66211 C 97.56887 171.36538 109.84613 173.65105 122.90039 175.44141 C 125.21817 167.53747 128.11496 159.67135 131.66406 151.8457 C 129.05467 159.73393 127.08829 167.72491 125.71289 175.81055 C 139.7022 177.63867 154.52738 178.90432 169.95508 179.5293 C 164.28616 150.55301 153.14025 128.47194 127.29883 128.06836 z "
         clip-path="none"
         style="fill:#4169e1;stroke:#000000;stroke-width:1" />
    </g>
  </g>
  <metadata
     id="metadata29">
    <rdf:RDF>
      <cc:Work>
        <dc:format>image/svg+xml</dc:format>
        <dc:type
           rdf:resource="http://purl.org/dc/dcmitype/StillImage" />
        <cc:license
           rdf:resource="http://creativecommons.org/licenses/publicdomain/" />
        <dc:publisher>
          <cc:Agent
             rdf:about="http://openclipart.org/">
            <dc:title>Openclipart</dc:title>
          </cc:Agent>
        </dc:publisher>
        <dc:title></dc:title>
      </cc:Work>
      <cc:License
         rdf:about="http://creativecommons.org/licenses/publicdomain/">
        <cc:permits
           rdf:resource="http://creativecommons.org/ns#Reproduction" />
        <cc:permits
           rdf:resource="http://creativecommons.org/ns#Distribution" />
        <cc:permits
           rdf:resource="http://creativecommons.org/ns#DerivativeWorks" />
      </cc:License>
    </rdf:RDF>
  </metadata>
</svg>
