<?xml version="1.0" encoding="iso-8859-1"?>
<!-- Generator: Adobe Illustrator 19.0.0, SVG Export Plug-In . SVG Version: 6.00 Build 0)  -->
<svg version="1.1" id="Layer_1" xmlns="http://www.w3.org/2000/svg" xmlns:xlink="http://www.w3.org/1999/xlink" x="0px" y="0px"
	 viewBox="0 0 512 512" style="enable-background:new 0 0 512 512;" xml:space="preserve">
<path style="fill:#36A1CB;" d="M498.643,214.92h-22.5c-2.126-11.474-5.132-22.638-8.937-33.426l19.469-11.241
	c6.387-3.689,8.576-11.856,4.89-18.245l-27.724-48.019c-3.689-6.389-11.856-8.577-18.245-4.888l-19.514,11.268
	c-7.513-8.764-15.687-16.939-24.452-24.45l11.267-19.515c3.689-6.388,1.5-14.556-4.89-18.245l-48.017-27.724
	c-6.389-3.689-14.556-1.5-18.246,4.888l-11.242,19.469c-10.786-3.805-21.95-6.811-33.424-8.938V13.357
	C297.08,5.98,291.1,0,283.724,0h-55.447C220.9,0,214.92,5.98,214.92,13.357v22.499c-11.474,2.128-22.637,5.132-33.424,8.938
	l-11.242-19.469c-3.688-6.388-11.856-8.577-18.246-4.888l-48.017,27.724c-6.389,3.688-8.578,11.857-4.89,18.245l11.267,19.514
	c-8.765,7.511-16.939,15.686-24.45,24.45L66.404,99.102c-6.387-3.688-14.556-1.499-18.246,4.89l-27.721,48.019
	c-3.689,6.388-1.5,14.557,4.887,18.245l19.469,11.241c-3.804,10.788-6.811,21.951-8.937,33.425h-22.5
	C5.98,214.922,0,220.901,0,228.279v55.445c0,7.378,5.98,13.357,13.357,13.357h22.5c2.126,11.474,5.132,22.639,8.937,33.426
	l-19.469,11.24c-6.387,3.689-8.576,11.858-4.887,18.245l27.721,48.02c3.689,6.389,11.858,8.576,18.246,4.89l19.515-11.267
	c7.511,8.763,15.685,16.939,24.448,24.45l-11.265,19.513c-3.688,6.389-1.5,14.559,4.89,18.246l48.018,27.724
	c6.389,3.689,14.559,1.5,18.246-4.89l11.242-19.467c10.786,3.804,21.95,6.808,33.424,8.937v22.498
	c0,7.376,5.98,13.357,13.357,13.357h55.447c7.376,0,13.357-5.98,13.357-13.357v-22.5c11.474-2.128,22.637-5.132,33.426-8.937
	l11.24,19.467c3.69,6.389,11.856,8.578,18.246,4.89l48.018-27.724c6.389-3.688,8.578-11.856,4.89-18.244l-11.265-19.515
	c8.763-7.511,16.939-15.687,24.45-24.45l19.513,11.267c6.389,3.688,14.556,1.498,18.245-4.89l27.724-48.02
	c3.688-6.387,1.498-14.556-4.89-18.244l-19.469-11.242c3.804-10.786,6.811-21.953,8.937-33.426h22.499
	c7.376,0,13.357-5.978,13.357-13.357v-55.445C512,220.899,506.02,214.92,498.643,214.92z M377.744,331.725l-16.539,21.638
	c-26.213,28.302-63.676,46.047-105.204,46.047c-79.076,0-143.409-64.333-143.409-143.409s64.333-143.409,143.409-143.409
	S399.409,176.924,399.409,256C399.409,283.778,391.472,309.736,377.744,331.725z"/>
<path style="fill:#1D89BF;" d="M256,432.8c-97.487,0-176.8-79.313-176.8-176.8c0-97.488,79.313-176.8,176.8-176.8
	c97.489,0,176.8,79.312,176.8,176.8C432.8,353.487,353.489,432.8,256,432.8z M377.744,331.725
	c13.728-21.989,21.665-47.947,21.665-75.725c0-79.076-64.333-143.409-143.409-143.409S112.592,176.924,112.592,256
	s64.333,143.409,143.409,143.409c41.529,0,78.992-17.744,105.204-46.047"/>
<path style="opacity:0.1;fill:#F5F5F5;enable-background:new    ;" d="M498.643,214.92h-22.5
	c-2.126-11.474-5.132-22.638-8.937-33.426l19.469-11.241c6.387-3.689,8.576-11.856,4.89-18.245l-27.724-48.019
	c-3.689-6.389-11.856-8.577-18.245-4.888l-19.514,11.268c-7.513-8.764-15.687-16.939-24.452-24.45l11.267-19.515
	c3.689-6.388,1.5-14.556-4.89-18.245l-48.017-27.724c-6.389-3.689-14.556-1.5-18.246,4.888l-11.242,19.469
	c-10.786-3.805-21.95-6.811-33.424-8.938V13.357c0-0.109-0.013-0.214-0.016-0.322C241.84,37.26,197.76,82.174,174.632,137.978
	c23.135-16,51.174-25.387,81.368-25.387c79.076,0,143.409,64.333,143.409,143.409c0,27.778-7.937,53.736-21.665,75.725
	l-16.539,21.638c-26.213,28.302-63.676,46.047-105.204,46.047c-9.123,0-18.046-0.866-26.701-2.503
	c42.04,40.164,99.007,64.833,161.74,64.833c6.919,0,13.763-0.318,20.529-0.906c3.493-4.178,4.212-10.248,1.329-15.236
	l-11.265-19.515c8.763-7.511,16.939-15.687,24.45-24.45l19.513,11.267c6.389,3.688,14.556,1.498,18.245-4.89l27.724-48.02
	c3.688-6.387,1.498-14.556-4.89-18.244l-19.469-11.242c3.804-10.786,6.811-21.953,8.937-33.426h22.501
	c7.376,0,13.357-5.978,13.357-13.357v-55.445C512,220.899,506.02,214.92,498.643,214.92z"/>
<path style="fill:#36A1CB;" d="M315.15,253.233c-0.013-0.28-0.032-0.559-0.05-0.838c-0.039-0.653-0.087-1.304-0.148-1.952
	c-0.028-0.298-0.057-0.595-0.088-0.892c-0.076-0.702-0.166-1.399-0.266-2.094c-0.028-0.203-0.052-0.407-0.083-0.609
	c-0.138-0.889-0.297-1.772-0.473-2.648c-0.041-0.199-0.088-0.396-0.13-0.594c-0.146-0.682-0.302-1.361-0.47-2.035
	c-0.069-0.275-0.141-0.55-0.214-0.824c-0.167-0.627-0.344-1.248-0.53-1.865c-0.073-0.244-0.145-0.488-0.221-0.73
	c-0.037-0.122-0.072-0.247-0.111-0.368l-0.029-0.048c-2.948-9.101-8.034-17.238-14.675-23.814l-0.013-0.022
	c-0.308-0.304-0.63-0.593-0.945-0.89c-0.333-0.315-0.66-0.636-0.998-0.943c-0.354-0.319-0.72-0.624-1.081-0.936
	c-0.356-0.306-0.707-0.618-1.07-0.916c-0.363-0.299-0.741-0.583-1.111-0.875c-0.374-0.292-0.741-0.589-1.121-0.872
	c-0.38-0.283-0.77-0.549-1.155-0.823c-0.387-0.274-0.769-0.554-1.163-0.819c-0.388-0.26-0.788-0.506-1.182-0.759
	c-0.404-0.258-0.805-0.523-1.215-0.772c-0.397-0.239-0.805-0.462-1.207-0.693c-0.422-0.242-0.839-0.491-1.269-0.723
	c-0.407-0.22-0.825-0.423-1.239-0.634c-0.435-0.223-0.866-0.452-1.308-0.664c-0.422-0.203-0.854-0.386-1.28-0.58
	c-0.444-0.2-0.885-0.408-1.335-0.599c-0.433-0.183-0.876-0.346-1.316-0.519c-0.455-0.179-0.906-0.366-1.366-0.534
	c-0.45-0.164-0.909-0.308-1.365-0.462c-0.46-0.155-0.914-0.319-1.377-0.462c-0.472-0.146-0.951-0.27-1.427-0.405
	c-0.457-0.129-0.912-0.268-1.374-0.387c-0.492-0.127-0.994-0.23-1.49-0.344c-0.454-0.105-0.906-0.219-1.365-0.313
	c-0.519-0.106-1.045-0.189-1.568-0.28c-0.446-0.078-0.889-0.168-1.339-0.237c-0.563-0.086-1.135-0.147-1.704-0.217
	c-0.416-0.051-0.828-0.115-1.246-0.157c-0.657-0.067-1.32-0.106-1.98-0.151c-0.341-0.023-0.676-0.059-1.017-0.077
	c-1.006-0.05-2.018-0.077-3.037-0.077c-1.017,0-2.03,0.026-3.038,0.077c-0.341,0.018-0.676,0.053-1.015,0.077
	c-0.662,0.046-1.326,0.085-1.98,0.151c-0.419,0.042-0.83,0.106-1.245,0.157c-0.57,0.069-1.141,0.131-1.706,0.217
	c-0.45,0.069-0.892,0.159-1.337,0.237c-0.524,0.091-1.05,0.175-1.569,0.28c-0.459,0.093-0.908,0.208-1.363,0.313
	c-0.498,0.114-0.998,0.217-1.491,0.344c-0.463,0.119-0.916,0.258-1.373,0.387c-0.476,0.135-0.956,0.259-1.426,0.405
	c-0.465,0.144-0.919,0.307-1.378,0.462c-0.454,0.154-0.913,0.297-1.363,0.462c-0.459,0.167-0.908,0.354-1.361,0.533
	c-0.441,0.174-0.887,0.337-1.322,0.521c-0.447,0.189-0.887,0.396-1.329,0.597c-0.43,0.193-0.863,0.377-1.286,0.581
	c-0.441,0.211-0.872,0.442-1.307,0.664c-0.413,0.21-0.831,0.414-1.239,0.634c-0.429,0.232-0.846,0.482-1.269,0.723
	c-0.402,0.232-0.81,0.454-1.205,0.693c-0.412,0.249-0.811,0.514-1.215,0.772c-0.395,0.253-0.796,0.498-1.184,0.759
	c-0.394,0.265-0.774,0.545-1.162,0.819c-0.386,0.274-0.776,0.54-1.155,0.823c-0.38,0.283-0.748,0.581-1.12,0.872
	c-0.372,0.291-0.748,0.575-1.113,0.875c-0.363,0.298-0.713,0.61-1.067,0.916c-0.361,0.312-0.727,0.617-1.081,0.936
	c-0.341,0.307-0.668,0.628-1,0.943c-0.314,0.298-0.637,0.587-0.944,0.89l-0.016,0.022c-6.64,6.576-11.725,14.712-14.674,23.814
	l-0.03,0.048c-0.039,0.121-0.071,0.246-0.111,0.368c-0.076,0.243-0.147,0.488-0.219,0.73c-0.187,0.618-0.364,1.24-0.531,1.865
	c-0.072,0.274-0.146,0.548-0.214,0.824c-0.168,0.675-0.325,1.352-0.47,2.035c-0.042,0.198-0.09,0.395-0.13,0.594
	c-0.177,0.876-0.335,1.759-0.473,2.648c-0.03,0.203-0.055,0.406-0.085,0.609c-0.1,0.695-0.189,1.392-0.265,2.094
	c-0.032,0.296-0.061,0.593-0.088,0.892c-0.06,0.648-0.11,1.299-0.149,1.952c-0.017,0.279-0.036,0.558-0.049,0.838
	c-0.042,0.918-0.07,1.839-0.07,2.767c0,32.707,26.513,59.221,59.219,59.221s59.219-26.513,59.219-59.221
	C315.219,255.072,315.193,254.15,315.15,253.233z"/>
<path style="fill:#2393B5;" d="M219.041,256c0-0.928,0.028-1.85,0.07-2.767c0.013-0.28,0.032-0.559,0.049-0.838
	c0.039-0.653,0.089-1.304,0.149-1.952c0.027-0.298,0.056-0.595,0.088-0.892c0.076-0.702,0.165-1.399,0.265-2.094
	c0.03-0.203,0.055-0.407,0.085-0.609c0.138-0.889,0.296-1.772,0.473-2.648c0.04-0.199,0.088-0.396,0.13-0.594
	c0.145-0.682,0.301-1.361,0.47-2.035c0.069-0.275,0.141-0.55,0.214-0.824c0.166-0.627,0.344-1.248,0.531-1.865
	c0.072-0.244,0.144-0.488,0.219-0.73c0.039-0.122,0.071-0.247,0.111-0.368l0.03-0.048c2.95-9.101,8.034-17.238,14.674-23.814
	l0.016-0.022c0.306-0.304,0.629-0.593,0.944-0.89c0.333-0.315,0.66-0.636,1-0.943c0.353-0.319,0.719-0.624,1.081-0.936
	c0.354-0.306,0.705-0.618,1.067-0.916c0.365-0.299,0.741-0.583,1.113-0.875c0.372-0.292,0.74-0.589,1.12-0.872
	c0.38-0.283,0.769-0.549,1.155-0.823c0.388-0.274,0.769-0.554,1.162-0.819c0.39-0.26,0.789-0.506,1.184-0.759
	c0.404-0.258,0.804-0.523,1.215-0.772c0.395-0.239,0.804-0.462,1.205-0.693c0.423-0.242,0.84-0.491,1.269-0.723
	c0.407-0.22,0.826-0.423,1.239-0.634c0.435-0.223,0.865-0.452,1.307-0.664c0.424-0.204,0.857-0.388,1.286-0.581
	c0.442-0.2,0.882-0.407,1.329-0.597c0.435-0.184,0.88-0.347,1.322-0.521c0.452-0.178,0.903-0.365,1.361-0.533
	c0.45-0.164,0.908-0.308,1.363-0.462c0.459-0.155,0.913-0.319,1.378-0.462c0.47-0.146,0.951-0.27,1.426-0.405
	c0.457-0.129,0.91-0.268,1.374-0.387c0.492-0.127,0.994-0.23,1.491-0.344c0.454-0.105,0.905-0.219,1.363-0.313
	c0.253-0.051,0.506-0.092,0.761-0.136c-0.269-0.047-0.536-0.097-0.807-0.145c-0.446-0.078-0.889-0.168-1.339-0.237
	c-0.563-0.086-1.135-0.147-1.704-0.217c-0.416-0.051-0.828-0.115-1.245-0.157c-0.657-0.067-1.32-0.106-1.98-0.151
	c-0.341-0.023-0.676-0.059-1.017-0.077c-1.006-0.05-2.018-0.077-3.038-0.077c-1.017,0-2.03,0.026-3.038,0.077
	c-0.341,0.018-0.676,0.053-1.015,0.077c-0.662,0.046-1.326,0.085-1.98,0.151c-0.419,0.042-0.83,0.106-1.245,0.157
	c-0.57,0.069-1.141,0.131-1.706,0.217c-0.45,0.069-0.892,0.159-1.337,0.237c-0.524,0.091-1.05,0.175-1.569,0.28
	c-0.459,0.093-0.908,0.208-1.363,0.313c-0.498,0.114-0.998,0.217-1.491,0.344c-0.463,0.119-0.916,0.258-1.373,0.387
	c-0.476,0.135-0.956,0.259-1.426,0.405c-0.465,0.144-0.919,0.307-1.378,0.462c-0.454,0.154-0.913,0.297-1.363,0.462
	c-0.459,0.167-0.908,0.354-1.361,0.533c-0.441,0.174-0.887,0.337-1.322,0.521c-0.447,0.189-0.887,0.396-1.329,0.597
	c-0.43,0.193-0.863,0.377-1.286,0.581c-0.441,0.211-0.872,0.442-1.307,0.664c-0.413,0.21-0.831,0.414-1.239,0.634
	c-0.429,0.232-0.846,0.482-1.269,0.723c-0.402,0.231-0.81,0.454-1.205,0.693c-0.412,0.249-0.811,0.514-1.215,0.772
	c-0.395,0.253-0.796,0.498-1.184,0.759c-0.394,0.265-0.774,0.545-1.162,0.819c-0.386,0.274-0.776,0.54-1.155,0.823
	c-0.38,0.283-0.748,0.581-1.12,0.872c-0.372,0.291-0.748,0.575-1.113,0.875c-0.363,0.298-0.713,0.61-1.067,0.916
	c-0.361,0.312-0.727,0.617-1.081,0.936c-0.341,0.307-0.668,0.628-0.999,0.943c-0.314,0.298-0.637,0.587-0.944,0.89l-0.016,0.022
	c-6.64,6.576-11.725,14.712-14.674,23.814l-0.03,0.048c-0.039,0.121-0.071,0.246-0.111,0.368c-0.076,0.243-0.147,0.488-0.219,0.73
	c-0.187,0.618-0.364,1.24-0.531,1.865c-0.072,0.274-0.146,0.548-0.214,0.824c-0.168,0.675-0.325,1.352-0.47,2.035
	c-0.042,0.198-0.09,0.395-0.13,0.594c-0.177,0.876-0.335,1.759-0.473,2.648c-0.03,0.203-0.055,0.406-0.085,0.609
	c-0.1,0.695-0.189,1.392-0.265,2.094c-0.032,0.296-0.061,0.593-0.088,0.892c-0.06,0.648-0.11,1.299-0.149,1.952
	c-0.017,0.279-0.036,0.558-0.049,0.838c-0.042,0.918-0.07,1.839-0.07,2.767c0,32.707,26.513,59.221,59.219,59.221
	c3.807,0,7.524-0.373,11.13-1.06C239.748,308.951,219.041,284.9,219.041,256z"/>
<g>
</g>
<g>
</g>
<g>
</g>
<g>
</g>
<g>
</g>
<g>
</g>
<g>
</g>
<g>
</g>
<g>
</g>
<g>
</g>
<g>
</g>
<g>
</g>
<g>
</g>
<g>
</g>
<g>
</g>
</svg>
