<?xml version="1.0" encoding="iso-8859-1"?>
<!-- Generator: Adobe Illustrator 19.0.0, SVG Export Plug-In . SVG Version: 6.00 Build 0)  -->
<svg version="1.1" id="Capa_1" xmlns="http://www.w3.org/2000/svg" xmlns:xlink="http://www.w3.org/1999/xlink" x="0px" y="0px"
	 viewBox="0 0 512 512" style="enable-background:new 0 0 512 512;" xml:space="preserve">
<path style="fill:#E6F9FF;" d="M361,180H151V0h210V180z"/>
<path style="fill:#CCEFFF;" d="M361,180H256V0h105V180z"/>
<polygon style="fill:#66E26F;" points="271,241 271,210 241,210 241,241 90,241 90,302 120,302 120,271 392,271 392,302 422,302 
	422,241 "/>
<rect x="151" style="fill:#EA596E;" width="210" height="60"/>
<rect x="256" style="fill:#DD2E44;" width="105" height="60"/>
<path style="fill:#E6F9FF;" d="M210,512H0V332h210V512z"/>
<path style="fill:#CCEFFF;" d="M210,512H105V332h105V512z"/>
<rect y="332" style="fill:#EA596E;" width="210" height="60"/>
<rect x="105" y="332" style="fill:#DD2E44;" width="105" height="60"/>
<path style="fill:#E6F9FF;" d="M512,512H302V332h210V512z"/>
<path style="fill:#CCEFFF;" d="M512,512H407V332h105V512z"/>
<rect x="302" y="332" style="fill:#EA596E;" width="210" height="60"/>
<rect x="407" y="332" style="fill:#DD2E44;" width="105" height="60"/>
<polygon style="fill:#48CC4E;" points="271,241 271,210 256,210 256,271 392,271 392,302 422,302 422,241 "/>
</svg>
