<?xml version="1.0" encoding="iso-8859-1"?>
<!-- Generator: Adobe Illustrator 19.0.0, SVG Export Plug-In . SVG Version: 6.00 Build 0)  -->
<svg version="1.1" id="Capa_1" xmlns="http://www.w3.org/2000/svg" xmlns:xlink="http://www.w3.org/1999/xlink" x="0px" y="0px"
	 viewBox="0 0 512 512" style="enable-background:new 0 0 512 512;" xml:space="preserve">
<g>
	<polygon style="fill:#EF2648;" points="42.223,480.563 26.044,475.17 85.222,297.6 67.388,65.766 288.563,118.852 430.566,26.974 
		439.834,41.293 291.703,137.148 86.212,87.834 102.511,299.733 101.956,301.363 	"/>
	
		<rect x="375.457" y="42.303" transform="matrix(-0.0905 0.9959 -0.9959 -0.0905 554.7352 -233.503)" style="fill:#EF2648;" width="17.067" height="188.502"/>
	
		<rect x="115.199" y="293.828" transform="matrix(-0.9487 0.3162 -0.3162 -0.9487 363.8856 717.54)" style="fill:#EF2648;" width="17.058" height="188.929"/>
	<polygon style="fill:#EF2648;" points="234.308,402.509 196.463,232.252 213.137,228.548 243.558,365.491 334.857,258.978 
		347.81,270.089 	"/>
	
		<rect x="328.563" y="308.237" transform="matrix(-0.2524 0.9676 -0.9676 -0.2524 818.5704 186.871)" style="fill:#EF2648;" width="17.066" height="202.833"/>
</g>
<circle style="fill:#B7E5FF;" cx="76.8" cy="76.8" r="68.267"/>
<path style="fill:#99C8E0;" d="M115.755,20.779c21.538,30.916,13.926,73.438-16.99,94.976c-23.433,16.324-54.554,16.324-77.986,0
	c21.444,31.01,63.966,38.767,94.976,17.331s38.767-63.966,17.331-94.976C128.401,31.334,122.53,25.463,115.755,20.779z"/>
<circle style="fill:#B7E5FF;" cx="435.2" cy="435.2" r="68.267"/>
<path style="fill:#99C8E0;" d="M474.155,379.179c21.538,30.916,13.926,73.438-16.99,94.976c-23.433,16.324-54.554,16.324-77.986,0
	c21.444,31.01,63.966,38.767,94.976,17.331c31.01-21.436,38.767-63.966,17.331-94.976
	C486.801,389.734,480.93,383.863,474.155,379.179z"/>
<circle style="fill:#4DB5FF;" cx="238.933" cy="384" r="42.667"/>
<path style="fill:#3596D8;" d="M264.431,349.969c14.182,18.697,10.522,45.346-8.166,59.529c-15.181,11.52-36.181,11.52-51.362,0
	c14.02,18.859,40.67,22.784,59.529,8.772c18.859-14.02,22.784-40.67,8.772-59.529C270.72,355.405,267.767,352.444,264.431,349.969z"
	/>
<circle style="fill:#4DB5FF;" cx="93.867" cy="298.667" r="42.667"/>
<path style="fill:#3596D8;" d="M119.364,264.636c14.182,18.697,10.522,45.346-8.166,59.529c-15.181,11.52-36.181,11.52-51.362,0
	c14.02,18.859,40.67,22.784,59.529,8.772c18.859-14.02,22.784-40.67,8.772-59.529C125.653,270.071,122.701,267.11,119.364,264.636z"
	/>
<circle style="fill:#4DB5FF;" cx="290.133" cy="128" r="42.667"/>
<path style="fill:#3596D8;" d="M315.631,93.969c14.182,18.697,10.522,45.346-8.166,59.529c-15.181,11.52-36.181,11.52-51.362,0
	c14.02,18.859,40.67,22.784,59.529,8.772c18.859-14.02,22.784-40.67,8.772-59.529C321.92,99.405,318.967,96.444,315.631,93.969z"/>
<circle style="fill:#235087;" cx="34.133" cy="477.867" r="25.6"/>
<path style="fill:#163768;" d="M47.394,456.073c2.475,3.985,3.789,8.576,3.806,13.261c0,14.14-11.46,25.6-25.6,25.6
	c-4.685-0.017-9.276-1.331-13.261-3.806c7.287,12.066,22.989,15.94,35.055,8.653s15.94-22.989,8.653-35.055
	C53.905,461.184,50.935,458.214,47.394,456.073z"/>
<circle style="fill:#235087;" cx="153.6" cy="477.867" r="25.6"/>
<path style="fill:#163768;" d="M166.861,456.073c2.475,3.985,3.789,8.576,3.806,13.261c0,14.14-11.46,25.6-25.6,25.6
	c-4.685-0.017-9.276-1.331-13.261-3.806c7.287,12.066,22.989,15.94,35.055,8.653c12.066-7.287,15.94-22.989,8.653-35.055
	C173.372,461.184,170.402,458.214,166.861,456.073z"/>
<circle style="fill:#235087;" cx="204.8" cy="230.4" r="25.6"/>
<path style="fill:#163768;" d="M218.061,208.606c2.475,3.985,3.789,8.576,3.806,13.261c0,14.14-11.46,25.6-25.6,25.6
	c-4.685-0.017-9.276-1.331-13.261-3.806c7.287,12.066,22.989,15.94,35.055,8.653s15.94-22.989,8.653-35.055
	C224.572,213.717,221.602,210.748,218.061,208.606z"/>
<circle style="fill:#235087;" cx="341.333" cy="264.533" r="25.6"/>
<path style="fill:#163768;" d="M354.594,242.739c2.475,3.985,3.789,8.576,3.806,13.261c0,14.14-11.46,25.6-25.6,25.6
	c-4.685-0.017-9.276-1.331-13.261-3.806c7.287,12.066,22.989,15.94,35.055,8.653c12.066-7.287,15.94-22.989,8.653-35.055
	C361.105,247.851,358.135,244.881,354.594,242.739z"/>
<circle style="fill:#235087;" cx="477.867" cy="145.067" r="25.6"/>
<path style="fill:#163768;" d="M491.128,123.273c2.475,3.985,3.789,8.576,3.806,13.261c0,14.14-11.46,25.6-25.6,25.6
	c-4.685-0.017-9.276-1.331-13.261-3.806c7.287,12.066,22.989,15.94,35.055,8.653c12.066-7.287,15.94-22.989,8.653-35.055
	C497.638,128.384,494.669,125.414,491.128,123.273z"/>
<circle style="fill:#235087;" cx="435.2" cy="34.133" r="25.6"/>
<path style="fill:#163768;" d="M448.461,12.339c2.475,3.985,3.789,8.576,3.806,13.261c0,14.14-11.46,25.6-25.6,25.6
	c-4.685-0.017-9.276-1.331-13.261-3.806c7.287,12.066,22.989,15.94,35.055,8.653c12.066-7.287,15.94-22.989,8.653-35.055
	C454.972,17.451,452.002,14.481,448.461,12.339z"/>
<path d="M76.8,153.6C34.381,153.6,0,119.219,0,76.8S34.381,0,76.8,0s76.8,34.381,76.8,76.8
	C153.549,119.194,119.194,153.549,76.8,153.6z M76.8,17.067c-32.99,0-59.733,26.743-59.733,59.733S43.81,136.533,76.8,136.533
	s59.733-26.743,59.733-59.733C136.499,43.827,109.773,17.101,76.8,17.067z"/>
<path d="M435.2,68.267c-18.85,0-34.133-15.283-34.133-34.133S416.35,0,435.2,0s34.133,15.283,34.133,34.133
	S454.05,68.267,435.2,68.267z M435.2,17.067c-9.429,0-17.067,7.637-17.067,17.067S425.771,51.2,435.2,51.2
	c9.429,0,17.067-7.637,17.067-17.067S444.629,17.067,435.2,17.067z"/>
<path d="M290.133,179.2c-28.279,0-51.2-22.921-51.2-51.2s22.921-51.2,51.2-51.2c28.279,0,51.2,22.921,51.2,51.2
	C341.308,156.262,318.396,179.174,290.133,179.2z M290.133,93.867C271.283,93.867,256,109.15,256,128s15.283,34.133,34.133,34.133
	c18.85,0,34.133-15.283,34.133-34.133S308.983,93.867,290.133,93.867z"/>
<path d="M477.867,179.2c-18.85,0-34.133-15.283-34.133-34.133s15.283-34.133,34.133-34.133S512,126.217,512,145.067
	S496.717,179.2,477.867,179.2z M477.867,128c-9.429,0-17.067,7.637-17.067,17.067c0,9.429,7.637,17.067,17.067,17.067
	c9.429,0,17.067-7.637,17.067-17.067C494.933,135.637,487.296,128,477.867,128z"/>
<path d="M435.2,512c-42.419,0-76.8-34.381-76.8-76.8s34.381-76.8,76.8-76.8s76.8,34.381,76.8,76.8
	C511.949,477.594,477.594,511.949,435.2,512z M435.2,375.467c-32.99,0-59.733,26.743-59.733,59.733s26.743,59.733,59.733,59.733
	s59.733-26.743,59.733-59.733C494.899,402.227,468.173,375.501,435.2,375.467z"/>
<path d="M93.867,349.867c-28.279,0-51.2-22.921-51.2-51.2c0-28.279,22.921-51.2,51.2-51.2s51.2,22.921,51.2,51.2
	C145.041,326.929,122.129,349.841,93.867,349.867z M93.867,264.533c-18.85,0-34.133,15.283-34.133,34.133S75.017,332.8,93.867,332.8
	S128,317.517,128,298.667S112.717,264.533,93.867,264.533z"/>
<path d="M34.133,512C15.283,512,0,496.717,0,477.867s15.283-34.133,34.133-34.133s34.133,15.283,34.133,34.133
	S52.983,512,34.133,512z M34.133,460.8c-9.429,0-17.067,7.637-17.067,17.067c0,9.429,7.637,17.067,17.067,17.067
	S51.2,487.296,51.2,477.867C51.2,468.437,43.563,460.8,34.133,460.8z"/>
<path d="M238.933,435.2c-28.279,0-51.2-22.921-51.2-51.2c0-28.279,22.921-51.2,51.2-51.2s51.2,22.921,51.2,51.2
	C290.108,412.262,267.196,435.174,238.933,435.2z M238.933,349.867c-18.85,0-34.133,15.283-34.133,34.133
	s15.283,34.133,34.133,34.133S273.067,402.85,273.067,384S257.783,349.867,238.933,349.867z"/>
<path d="M204.8,264.533c-18.85,0-34.133-15.283-34.133-34.133s15.283-34.133,34.133-34.133s34.133,15.283,34.133,34.133
	S223.65,264.533,204.8,264.533z M204.8,213.333c-9.429,0-17.067,7.637-17.067,17.067c0,9.429,7.637,17.067,17.067,17.067
	c9.429,0,17.067-7.637,17.067-17.067C221.867,220.971,214.229,213.333,204.8,213.333z"/>
<path d="M341.333,298.667c-18.85,0-34.133-15.283-34.133-34.133s15.283-34.133,34.133-34.133s34.133,15.283,34.133,34.133
	S360.183,298.667,341.333,298.667z M341.333,247.467c-9.429,0-17.067,7.637-17.067,17.067c0,9.429,7.637,17.067,17.067,17.067
	c9.429,0,17.067-7.637,17.067-17.067C358.4,255.104,350.763,247.467,341.333,247.467z"/>
<path d="M153.6,512c-18.85,0-34.133-15.283-34.133-34.133s15.283-34.133,34.133-34.133s34.133,15.283,34.133,34.133
	S172.45,512,153.6,512z M153.6,460.8c-9.429,0-17.067,7.637-17.067,17.067c0,9.429,7.637,17.067,17.067,17.067
	c9.429,0,17.067-7.637,17.067-17.067C170.667,468.437,163.029,460.8,153.6,460.8z"/>
</svg>
