<?xml version="1.0" encoding="iso-8859-1"?>
<!-- Generator: Adobe Illustrator 19.0.0, SVG Export Plug-In . SVG Version: 6.00 Build 0)  -->
<svg version="1.1" id="Layer_1" xmlns="http://www.w3.org/2000/svg" xmlns:xlink="http://www.w3.org/1999/xlink" x="0px" y="0px"
	 viewBox="0 0 502 502" style="enable-background:new 0 0 502 502;" xml:space="preserve">
<g>
	<rect x="10" y="66.375" style="fill:#DC4EDC;" width="482" height="73.896"/>
	<rect x="10" y="140.039" style="fill:#D1DCEB;" width="482" height="295.586"/>
	<g>
		<path d="M492,445.625c5.522,0,10-4.477,10-10V66.375c0-5.523-4.478-10-10-10H10c-5.522,0-10,4.477-10,10v369.25
			c0,5.523,4.478,10,10,10H492z M482,277.832H381.5v-53.896H482V277.832z M20,223.936h100.5v53.896H20V223.936z M361.5,150.271
			v53.664H261v-53.664H361.5z M241,150.271v53.664H140.5v-53.664H241z M140.5,223.936H241v53.896H140.5V223.936z M261,223.936h100.5
			v53.896H261V223.936z M381.5,203.936v-53.664H482v53.664H381.5z M120.5,150.271v53.664H20v-53.664H120.5z M20,297.832h100.5
			v53.896H20V297.832z M140.5,297.832H241v53.896H140.5V297.832z M261,297.832h100.5v53.896H261V297.832z M381.5,297.832H482v53.896
			H381.5V297.832z M20,130.039V76.375h462v53.664H20z M20,371.729h100.5v53.896H20V371.729z M140.5,371.729H241v53.896H140.5
			V371.729z M261,371.729h100.5v53.896H261V371.729z M482,425.625H381.5v-53.896H482V425.625z"/>
		<path d="M209,107.625h192c5.522,0,10-4.477,10-10s-4.478-10-10-10H209c-5.522,0-10,4.477-10,10S203.478,107.625,209,107.625z"/>
		<path d="M436,107.625h22c5.522,0,10-4.477,10-10s-4.478-10-10-10h-22c-5.522,0-10,4.477-10,10S430.478,107.625,436,107.625z"/>
	</g>
</g>
</svg>
