<?xml version="1.0" encoding="UTF-8" standalone="no"?>
<!-- Created with Vectornator (http://vectornator.io/) -->
<svg height="1024" stroke-miterlimit="10" style="fill-rule:nonzero;clip-rule:evenodd;stroke-linecap:round;stroke-linejoin:round;" version="1.1" viewBox="0 0 53 53" width="1024" xml:space="preserve" xmlns="http://www.w3.org/2000/svg" xmlns:vectornator="http://vectornator.io" xmlns:xlink="http://www.w3.org/1999/xlink">
<defs>
<clipPath id="TextBounds">
<rect height="36.689" width="35.9434" x="12.5462" y="-0.531176"/>
</clipPath>
</defs>
<g id="Untitled" vectornator:layerName="Untitled">
<path d="M50.455 25.5819L50.455 25.5819C49.724 22.8632 39.281 20.7075 26.5 20.7075C13.719 20.7075 3.276 22.8632 2.545 25.5819L2.545 25.5819L2.5 25.5819L2.5 25.8865L2.5 32.8934L2.5 33.198L2.5 33.5027L2.5 40.2049L2.5 40.5095L2.5 40.8142L2.5 48.1257L2.545 48.1257C3.276 50.8437 13.72 53 26.5 53C39.28 53 49.724 50.8437 50.455 48.1257L50.5 48.1257L50.5 40.8142L50.5 40.5095L50.5 40.2049L50.5 33.5027L50.5 33.198L50.5 32.8934L50.5 25.8865L50.5 25.5819L50.455 25.5819Z" fill="#424a60" fill-rule="evenodd" opacity="1" stroke="none"/>
<path d="M12.4429 16.684C12.4429 8.46647 18.9225 1.80487 26.9155 1.80487C34.9085 1.80487 41.3881 8.46647 41.3881 16.684C41.3881 24.9015 34.9085 31.5631 26.9155 31.5631C18.9225 31.5631 12.4429 24.9015 12.4429 16.684Z" fill="#98acc1" fill-rule="evenodd" opacity="1" stroke="none"/>
<g opacity="1">
<path d="M26.5 45.6885C13.245 45.6885 2.5 43.3695 2.5 40.5095L2.5 48.1257L2.545 48.1257C3.276 50.8437 13.72 53 26.5 53C39.28 53 49.724 50.8437 50.455 48.1257L50.5 48.1257L50.5 40.5095C50.5 43.3695 39.755 45.6885 26.5 45.6885Z" fill="#424a60" fill-rule="evenodd" opacity="1" stroke="none"/>
<path d="M2.5 40.2049L2.5 40.5095C2.5 40.4072 2.518 40.306 2.545 40.2049L2.5 40.2049Z" fill="#424a60" fill-rule="evenodd" opacity="1" stroke="none"/>
<path d="M50.455 40.2049C50.482 40.306 50.5 40.4072 50.5 40.5095L50.5 40.2049L50.455 40.2049Z" fill="#424a60" fill-rule="evenodd" opacity="1" stroke="none"/>
</g>
<g opacity="1">
<path d="M26.5 38.377C13.245 38.377 2.5 36.058 2.5 33.198L2.5 40.8142L2.545 40.8142C3.276 43.5322 13.72 45.6885 26.5 45.6885C39.28 45.6885 49.724 43.5322 50.455 40.8142L50.5 40.8142L50.5 33.198C50.5 36.058 39.755 38.377 26.5 38.377Z" fill="#556080" fill-rule="evenodd" opacity="1" stroke="none"/>
<path d="M2.5 32.8934L2.5 33.198C2.5 33.0956 2.518 32.9945 2.545 32.8934L2.5 32.8934Z" fill="#556080" fill-rule="evenodd" opacity="1" stroke="none"/>
<path d="M50.455 32.8934C50.482 32.9945 50.5 33.0956 50.5 33.198L50.5 32.8934L50.455 32.8934Z" fill="#556080" fill-rule="evenodd" opacity="1" stroke="none"/>
</g>
<path d="M2.5 25.8865C2.5 23.0262 13.2452 20.7075 26.5 20.7075C39.7548 20.7075 50.5 23.0262 50.5 25.8865C50.5 28.7468 39.7548 31.0655 26.5 31.0655C13.2452 31.0655 2.5 28.7468 2.5 25.8865Z" fill="#7fabda" fill-rule="evenodd" opacity="1" stroke="none"/>
<g opacity="1">
<path d="M26.5 31.0655C13.245 31.0655 2.5 28.7465 2.5 25.8865L2.5 33.5027L2.545 33.5027C3.276 36.2207 13.72 38.377 26.5 38.377C39.28 38.377 49.724 36.2207 50.455 33.5027L50.5 33.5027L50.5 25.8865C50.5 28.7465 39.755 31.0655 26.5 31.0655Z" fill="#7383bf" fill-rule="evenodd" opacity="1" stroke="none"/>
<path d="M2.5 25.5819L2.5 25.8865C2.5 25.7841 2.518 25.683 2.545 25.5819L2.5 25.5819Z" fill="#7383bf" fill-rule="evenodd" opacity="1" stroke="none"/>
<path d="M50.455 25.5819C50.482 25.683 50.5 25.7841 50.5 25.8865L50.5 25.5819L50.455 25.5819Z" fill="#7383bf" fill-rule="evenodd" opacity="1" stroke="none"/>
</g>
<path clip-path="url(#TextBounds)" d="M27.0306 20.0469L27.0306 16.1876L36.9993 16.1876L36.9993 25.3126C36.0306 26.2501 34.6269 27.0756 32.7884 27.7891C30.9498 28.5027 29.0879 28.8594 27.2025 28.8594C24.8066 28.8594 22.7181 28.3568 20.9368 27.3516C19.1556 26.3464 17.817 24.9089 16.9212 23.0391C16.0254 21.1693 15.5775 19.1355 15.5775 16.9376C15.5775 14.5522 16.0775 12.4324 17.0775 10.5782C18.0775 8.72403 19.541 7.30216 21.4681 6.31257C22.9368 5.55216 24.765 5.17195 26.9525 5.17195C29.7962 5.17195 32.0176 5.7683 33.6165 6.96101C35.2155 8.15372 36.2441 9.80216 36.7025 11.9063L32.1087 12.7657C31.7858 11.6407 31.179 10.7527 30.2884 10.1016C29.3978 9.45059 28.2858 9.12507 26.9525 9.12507C24.9316 9.12507 23.3248 9.7657 22.1321 11.0469C20.9394 12.3282 20.3431 14.2292 20.3431 16.7501C20.3431 19.4688 20.9472 21.5079 22.1556 22.8673C23.3639 24.2266 24.9472 24.9063 26.9056 24.9063C27.8743 24.9063 28.8457 24.7162 29.8196 24.336C30.7936 23.9558 31.6295 23.4949 32.3275 22.9532L32.3275 20.0469L27.0306 20.0469Z" fill="#ffe900" fill-rule="evenodd" opacity="1" stroke="none"/>
</g>
</svg>
