<svg xmlns="http://www.w3.org/2000/svg" xmlns:xlink="http://www.w3.org/1999/xlink" id="Ebene_1" x="0" y="0" version="1.1" viewBox="0 0 350.5 350" style="enable-background:new 0 0 409.5 344.4" xml:space="preserve"><style type="text/css">.st0{fill:#fff100}</style><path d="M172.2,339.4L172.2,339.4C79.7,339.4,5,264.7,5,172.2l0,0C5,79.7,79.7,5,172.2,5l0,0c92.5,0,167.2,74.7,167.2,167.2l0,0	C339.4,264.7,264.7,339.4,172.2,339.4z"/><path d="M261.6,147.4h-32.8v49.5h32.8c13.6,0,24.9-11.3,24.9-24.9C286.5,158.3,275.2,147.4,261.6,147.4" class="st0"/><path d="M68.1,172.2c0,38.2,31.1,69.3,69.3,69.3s69.3-31.1,69.3-69.3s-31.1-69.3-69.3-69.3S68.1,134,68.1,172.2	L68.1,172.2" class="st0"/></svg>