<svg xmlns="http://www.w3.org/2000/svg" width="128" height="128" viewBox="0 0 128 128">
  <g id="研运logo2" transform="translate(-2748 -922)">
    <rect id="矩形_7013" data-name="矩形 7013" width="128" height="128" transform="translate(2748 922)" fill="none"/>
    <path id="路径_54549" data-name="路径 54549" d="M463.447,362.52l-55.429-32V309.186l55.429,32Z" transform="translate(2348.549 687.48)" fill="#2e72d1"/>
    <path id="路径_54550" data-name="路径 54550" d="M463.447,303.918l-55.429-32,55.431-32,55.426,32Z" transform="translate(2348.549 724.748)" fill="#6eb4ff"/>
    <path id="路径_54551" data-name="路径 54551" d="M583.428,309.186V330.52L528,362.52V341.186Z" transform="translate(2283.996 687.48)" fill="#4393f8"/>
    <path id="路径_54553" data-name="路径 54553" d="M541.068,170.651v39.467L517.952,223.46V183.994Z" transform="translate(2289.403 762.016)" fill="#4393f8"/>
    <path id="路径_54554" data-name="路径 54554" d="M496.459,226.56l-18.452-10.679V176.415L496.461,187.1Z" transform="translate(2310.893 758.914)" fill="#2e72d1"/>
    <path id="路径_54555" data-name="路径 54555" d="M496.462,171.572,478.01,160.891l23.09-13.329,18.476,10.667Z" transform="translate(2310.891 774.438)" fill="#6eb4ff"/>
    <path id="路径_54556" data-name="路径 54556" d="M626.474,216.818v39.467L607.99,266.953V227.488Z" transform="translate(2240.96 737.176)" fill="#4393f8"/>
    <path id="路径_54557" data-name="路径 54557" d="M564.962,254.52l-36.943-21.344V193.71l36.945,21.345Z" transform="translate(2283.985 749.609)" fill="#2e72d1"/>
    <path id="路径_54558" data-name="路径 54558" d="M564.964,202.649,528.019,181.3l18.467-10.653,36.963,21.328Z" transform="translate(2283.985 762.015)" fill="#6eb4ff"/>
    <path id="路径_54559" data-name="路径 54559" d="M502.774,202.889v39.467L494.723,247V207.537Z" transform="translate(2301.899 744.67)" fill="#4393f8"/>
    <path id="路径_54560" data-name="路径 54560" d="M473.234,239.976,454.782,229.3V189.83l18.452,10.681Z" transform="translate(2323.388 751.697)" fill="#2e72d1"/>
    <path id="路径_54561" data-name="路径 54561" d="M473.237,195.115l-18.452-10.681,8.026-4.634,18.475,10.666Z" transform="translate(2323.386 757.093)" fill="#6eb4ff"/>
    <path id="路径_54562" data-name="路径 54562" d="M479.4,216.383V255.85l-8.048,4.646V221.032Z" transform="translate(2314.475 737.41)" fill="#ffc15e"/>
    <path id="路径_54563" data-name="路径 54563" d="M449.859,253.47l-18.452-10.679V203.325l18.452,10.681Z" transform="translate(2335.965 744.436)" fill="#e09636"/>
    <path id="路径_54564" data-name="路径 54564" d="M449.863,208.609l-18.453-10.68,8.026-4.634,18.475,10.666Z" transform="translate(2335.963 749.832)" fill="#ffd473"/>
    <path id="路径_54565" data-name="路径 54565" d="M456.01,229.886v39.467L447.959,274V234.534Z" transform="translate(2327.06 730.145)" fill="#4dcee8"/>
    <path id="路径_54566" data-name="路径 54566" d="M426.47,266.973l-18.452-10.679V216.828l18.452,10.681Z" transform="translate(2348.549 737.171)" fill="#25b7db"/>
    <path id="路径_54567" data-name="路径 54567" d="M426.473,222.112l-18.452-10.681,8.026-4.634,18.475,10.666Z" transform="translate(2348.547 742.567)" fill="#78e4f5"/>
    <path id="路径_54568" data-name="路径 54568" d="M528,148.561" transform="translate(2283.995 773.9)" fill="#848484"/>
    <path id="路径_54569" data-name="路径 54569" d="M572.468,235.947l-.006,2.192-1.908-1.1.006-2.192Z" transform="translate(2261.1 727.478)" fill="#dee8f5"/>
    <path id="路径_54570" data-name="路径 54570" d="M574.691,235.947l1.9-1.1-.006,2.192-1.9,1.1Z" transform="translate(2258.877 727.478)" fill="#c4d6ef"/>
    <path id="路径_54571" data-name="路径 54571" d="M570.567,233.562l1.9-1.1,1.908,1.1-1.9,1.1Z" transform="translate(2261.093 728.761)" fill="#fff"/>
    <path id="路径_54572" data-name="路径 54572" d="M589.2,265l-.006,2-1.737-1,.006-2Z" transform="translate(2252.004 711.794)" fill="#dee8f5"/>
    <path id="路径_54573" data-name="路径 54573" d="M591.226,265l1.726-1-.006,2-1.726,1Z" transform="translate(2249.981 711.793)" fill="#c4d6ef"/>
    <path id="路径_54574" data-name="路径 54574" d="M587.472,262.828l1.726-1,1.737,1-1.726,1Z" transform="translate(2251.998 712.961)" fill="#fff"/>
    <path id="路径_54575" data-name="路径 54575" d="M589.2,245.707l-.006,2-1.737-1,.006-2Z" transform="translate(2252.004 722.173)" fill="#dee8f5"/>
    <path id="路径_54576" data-name="路径 54576" d="M591.226,245.707l1.726-1-.006,2-1.726,1Z" transform="translate(2249.981 722.173)" fill="#c4d6ef"/>
    <path id="路径_54577" data-name="路径 54577" d="M587.472,243.536l1.726-1,1.737,1-1.726,1Z" transform="translate(2251.998 723.341)" fill="#fff"/>
    <path id="路径_54578" data-name="路径 54578" d="M557.167,245.153l-.008,2.951-2.569-1.483.008-2.951Z" transform="translate(2269.689 722.73)" fill="#dee8f5"/>
    <path id="路径_54580" data-name="路径 54580" d="M554.609,241.943l2.552-1.483,2.569,1.483-2.552,1.483Z" transform="translate(2269.678 724.457)" fill="#fff"/>
    <path id="路径_54581" data-name="路径 54581" d="M573.843,274.172l-.008,2.813-2.448-1.413.008-2.813Z" transform="translate(2260.652 707.079)" fill="#dee8f5"/>
    <path id="路径_54582" data-name="路径 54582" d="M576.694,274.172l2.432-1.413-.008,2.813-2.432,1.413Z" transform="translate(2257.801 707.079)" fill="#c4d6ef"/>
    <path id="路径_54583" data-name="路径 54583" d="M571.4,271.113l2.432-1.413,2.448,1.413-2.432,1.413Z" transform="translate(2260.643 708.726)" fill="#fff"/>
    <path id="路径_54584" data-name="路径 54584" d="M573.868,254.894l-.008,2.788-2.427-1.4.008-2.788Z" transform="translate(2260.627 717.445)" fill="#dee8f5"/>
    <path id="路径_54585" data-name="路径 54585" d="M576.694,254.894l2.411-1.4-.008,2.788-2.411,1.4Z" transform="translate(2257.801 717.445)" fill="#c4d6ef"/>
    <path id="路径_54585-2" data-name="路径 54585" d="M576.694,254.975l2.551-1.481-.008,2.95-2.551,1.481Z" transform="translate(2250.163 712.906)" fill="#c4d6ef"/>
    <path id="路径_54586" data-name="路径 54586" d="M571.451,251.861l2.411-1.4,2.427,1.4-2.411,1.4Z" transform="translate(2260.617 719.077)" fill="#fff"/>
    <path id="路径_54587" data-name="路径 54587" d="M539.867,253.36l-.01,3.71-3.229-1.864.011-3.71Z" transform="translate(2279.354 718.52)" fill="#dee8f5"/>
    <path id="路径_54588" data-name="路径 54588" d="M543.627,253.36l3.208-1.864-.011,3.71-3.208,1.864Z" transform="translate(2275.593 718.519)" fill="#c4d6ef"/>
    <path id="路径_54589" data-name="路径 54589" d="M536.65,249.324l3.208-1.864,3.229,1.864-3.208,1.864Z" transform="translate(2279.342 720.691)" fill="#fff"/>
    <path id="路径_54590" data-name="路径 54590" d="M556.431,282.315l-.01,3.681-3.2-1.85.01-3.681Z" transform="translate(2270.428 702.933)" fill="#dee8f5"/>
    <path id="路径_54591" data-name="路径 54591" d="M560.163,282.315l3.183-1.85-.01,3.681L560.153,286Z" transform="translate(2266.696 702.933)" fill="#c4d6ef"/>
    <path id="路径_54592" data-name="路径 54592" d="M553.239,278.31l3.183-1.85,3.2,1.85-3.183,1.85Z" transform="translate(2270.416 705.088)" fill="#fff"/>
    <path id="路径_54593" data-name="路径 54593" d="M556.567,263.1l-.01,3.547-3.087-1.782.01-3.547Z" transform="translate(2270.292 713.235)" fill="#dee8f5"/>
    <path id="路径_54594" data-name="路径 54594" d="M560.162,263.1l3.067-1.782-.01,3.547-3.067,1.782Z" transform="translate(2266.697 713.235)" fill="#c4d6ef"/>
    <path id="路径_54595" data-name="路径 54595" d="M553.492,259.242l3.067-1.782,3.087,1.782-3.067,1.782Z" transform="translate(2270.28 715.311)" fill="#fff"/>
    <path id="路径_54596" data-name="路径 54596" d="M522.566,262.566l-.013,4.468-3.889-2.245.013-4.468Z" transform="translate(2289.018 713.77)" fill="#dee8f5"/>
    <path id="路径_54597" data-name="路径 54597" d="M527.1,262.566l3.864-2.245-.013,4.468-3.864,2.245Z" transform="translate(2284.488 713.77)" fill="#c4d6ef"/>
    <path id="路径_54598" data-name="路径 54598" d="M518.691,257.706l3.864-2.245,3.889,2.245-3.864,2.245Z" transform="translate(2289.004 716.386)" fill="#fff"/>
    <path id="路径_54599" data-name="路径 54599" d="M539.124,291.517l-.013,4.446-3.87-2.234.013-4.446Z" transform="translate(2280.099 698.188)" fill="#dee8f5"/>
    <path id="路径_54600" data-name="路径 54600" d="M543.631,291.518l3.845-2.234-.013,4.446-3.845,2.234Z" transform="translate(2275.592 698.188)" fill="#c4d6ef"/>
    <path id="路径_54601" data-name="路径 54601" d="M535.269,286.681l3.845-2.234,3.87,2.234-3.845,2.234Z" transform="translate(2280.085 700.79)" fill="#fff"/>
    <path id="路径_54602" data-name="路径 54602" d="M539.124,272.225l-.013,4.446-3.87-2.234.013-4.446Z" transform="translate(2280.099 708.567)" fill="#dee8f5"/>
    <path id="路径_54603" data-name="路径 54603" d="M543.631,272.225l3.845-2.234-.013,4.446-3.845,2.234Z" transform="translate(2275.592 708.567)" fill="#c4d6ef"/>
    <path id="路径_54604" data-name="路径 54604" d="M535.269,267.389l3.845-2.234,3.87,2.234-3.845,2.234Z" transform="translate(2280.085 711.17)" fill="#fff"/>
    <path id="路径_54605" data-name="路径 54605" d="M504.674,271.432l-.016,5.814-5.06-2.922.016-5.814Z" transform="translate(2299.277 709.364)" fill="#dee8f5"/>
    <path id="路径_54606" data-name="路径 54606" d="M510.567,271.432l5.027-2.921-.016,5.814-5.027,2.921Z" transform="translate(2293.384 709.365)" fill="#c4d6ef"/>
    <path id="路径_54607" data-name="路径 54607" d="M499.633,265.108l5.027-2.921,5.06,2.922-5.027,2.921Z" transform="translate(2299.257 712.767)" fill="#fff"/>
    <path id="路径_54608" data-name="路径 54608" d="M521.21,300.371l-.016,5.814-5.06-2.922.016-5.814Z" transform="translate(2290.38 693.795)" fill="#dee8f5"/>
    <path id="路径_54609" data-name="路径 54609" d="M527.1,300.371l5.027-2.921-.016,5.814-5.027,2.921Z" transform="translate(2284.486 693.795)" fill="#c4d6ef"/>
    <path id="路径_54610" data-name="路径 54610" d="M516.169,294.047l5.027-2.921,5.06,2.922-5.027,2.921Z" transform="translate(2290.36 697.197)" fill="#fff"/>
    <path id="路径_54611" data-name="路径 54611" d="M521.21,281.078l-.016,5.814-5.06-2.922.016-5.814Z" transform="translate(2290.38 704.174)" fill="#dee8f5"/>
    <path id="路径_54612" data-name="路径 54612" d="M527.1,281.079l5.027-2.921-.016,5.814-5.027,2.921Z" transform="translate(2284.486 704.175)" fill="#c4d6ef"/>
    <path id="路径_54613" data-name="路径 54613" d="M516.169,274.755l5.027-2.921,5.06,2.922-5.027,2.921Z" transform="translate(2290.36 707.577)" fill="#fff"/>
    <path id="路径_54614" data-name="路径 54614" d="M477.935,296.629l-.042,14.848-12.924-7.462.042-14.848Z" transform="translate(2317.908 698.251)" fill="#dee8f5"/>
    <path id="路径_54615" data-name="路径 54615" d="M492.986,296.63l12.839-7.461-.042,14.848-12.839,7.461Z" transform="translate(2302.856 698.25)" fill="#c4d6ef"/>
    <path id="路径_54616" data-name="路径 54616" d="M465.059,280.478l12.839-7.461,12.924,7.462-12.839,7.461Z" transform="translate(2317.859 706.94)" fill="#fff"/>
  </g>
</svg>
