<?xml version="1.0" encoding="iso-8859-1"?>
<!-- Generator: Adobe Illustrator 16.0.0, SVG Export Plug-In . SVG Version: 6.00 Build 0)  -->
<!DOCTYPE svg PUBLIC "-//W3C//DTD SVG 1.1//EN" "http://www.w3.org/Graphics/SVG/1.1/DTD/svg11.dtd">
<svg version="1.1" id="Capa_1" xmlns="http://www.w3.org/2000/svg" xmlns:xlink="http://www.w3.org/1999/xlink" x="0px" y="0px"
	 width="548.291px" height="548.291px" viewBox="0 0 548.291 548.291" style="enable-background:new 0 0 548.291 548.291;"
	 xml:space="preserve">
<g>
	<path d="M186.908,266.804c0-11.443-8.735-17.49-24.21-17.49c-7.392,0-11.655,0.452-14.562,0.892v35.195h11.202
		C177.275,285.401,186.908,278.008,186.908,266.804z"/>
	<path d="M486.201,196.124h-13.166V132.59c0-0.396-0.062-0.795-0.115-1.196c-0.021-2.523-0.825-5-2.552-6.963L364.651,3.677
		c-0.032-0.031-0.063-0.042-0.09-0.073c-0.624-0.707-1.364-1.292-2.138-1.795c-0.23-0.157-0.46-0.286-0.701-0.421
		c-0.673-0.366-1.387-0.671-2.127-0.892c-0.199-0.055-0.373-0.134-0.571-0.188C358.23,0.118,357.39,0,356.556,0H96.757
		C84.894,0,75.256,9.651,75.256,21.502v174.616H62.09c-16.968,0-30.729,13.756-30.729,30.73v159.812
		c0,16.968,13.761,30.731,30.729,30.731h13.166V526.79c0,11.854,9.638,21.501,21.501,21.501h354.776
		c11.853,0,21.501-9.647,21.501-21.501V417.397h13.166c16.966,0,30.729-13.769,30.729-30.736V226.854
		C516.93,209.874,503.167,196.124,486.201,196.124z M451.534,520.962H96.757V417.397h354.776V520.962z M226.368,332.489
		c0,13.668-6.284,24.43-15.69,32.052c-10.988,8.735-29.366,13.67-59.403,13.67c-16.813,0-29.365-1.124-36.995-2.247V227.571
		c8.974-1.796,27.126-3.14,44.166-3.14c20.851,0,33.617,2.016,44.604,8.514c10.536,5.617,18.164,15.917,18.164,29.586
		c0,13.461-7.848,26.007-24.882,32.297v0.431C213.585,299.983,226.368,312.981,226.368,332.489z M249.699,376.636V225.554h34.295
		v151.069h-34.295V376.636z M407.291,269.712v-44.158h31.381v151.069h-35.863l-32.272-58.277
		c-8.967-16.138-18.835-35.646-26.226-53.342l-0.673,0.21c0.893,19.956,1.343,41.258,1.343,65.908v45.501h-31.386V225.554h39.911
		l31.382,55.362c8.956,15.927,17.921,34.752,24.65,51.791h0.672C407.963,312.75,407.291,292.351,407.291,269.712z M451.534,196.124
		H96.757V21.502h249.054v110.009c0,5.939,4.817,10.75,10.751,10.75h94.972V196.124z"/>
	<path d="M159.8,309.841h-11.659v42.584c3.359,0.462,7.391,0.462,13.218,0.462c15.475,0,29.149-5.838,29.149-21.754
		C190.503,315.889,176.829,309.841,159.8,309.841z"/>
</g>
</svg>
