<svg height="481pt" viewBox="0 0 481.48264 481" width="481pt" xmlns="http://www.w3.org/2000/svg"><g fill="#9bc9ff"><path d="m340.414062 160.019531.351563.230469zm0 0"/><path d="m426.460938 100.539062c-12.496094 12.496094-32.757813 12.496094-45.253907 0-12.5-12.496093-12.5-32.757812 0-45.257812l39.597657-39.597656c-27.015626-13.503906-59.640626-8.21875-81.007813 13.128906l-9.503906 9.503906c-15.019531 14.988282-23.445313 35.347656-23.414063 56.566406 0 3.769532.28125 7.53125.847656 11.253907 3.027344 21.667969 14.832032 41.136719 32.640626 53.84375l.046874.039062.351563.230469c10.359375 7.292969 22.308594 12.011719 34.855469 13.769531 24.902344 3.613281 50.046875-4.753906 67.816406-22.570312l9.496094-9.511719c21.335937-21.367188 26.621094-53.984375 13.128906-81zm0 0"/><path d="m340.765625 160.25-.351563-.230469-.046874-.039062c-3.59375-2.5625-6.972657-5.414063-10.105469-8.523438-12.269531-12.25-20.191407-28.179687-22.558594-45.359375l-5.203125 10.480469c-11.546875 23.09375-26.757812 44.167969-45.039062 62.402344l-78.71875 78.71875c-18.214844 18.28125-39.292969 33.46875-62.398438 44.960937l-10.402344 5.277344c35.191406 5.046875 62.832032 32.710938 67.847656 67.90625l5.273438-10.464844c11.519531-23.089844 26.703125-44.164062 44.960938-62.398437l39.359374-39.363281 39.359376-39.359376c18.25-18.238281 39.320312-33.417968 62.398437-44.960937l10.472656-5.277344c-12.546875-1.75-24.492187-6.472656-34.847656-13.769531zm0 0"/><path d="m340.367188 159.980469.046874.039062zm0 0"/><path d="m340.765625 160.25c10.351563 7.296875 22.296875 12.015625 34.839844 13.769531-12.542969-1.761719-24.484375-6.480469-34.839844-13.769531zm0 0"/><path d="m164.902344 348.96875c-11.984375-22.308594-33.90625-37.550781-58.992188-41.015625-3.730468-.558594-7.492187-.84375-11.265625-.847656-21.21875-.027344-41.578125 8.402343-56.566406 23.425781l-9.503906 9.503906c-21.339844 21.367188-26.625 53.988282-13.121094 81l39.601563-39.59375c8.050781-8.234375 19.90625-11.507812 31.042968-8.570312 11.136719 2.941406 19.835938 11.636718 22.777344 22.773437s-.332031 22.992188-8.566406 31.046875l-39.597656 39.597656c27.019531 13.484376 59.636718 8.191407 81.007812-13.152343l9.503906-9.46875c17.8125-17.777344 26.179688-42.921875 22.566406-67.824219-1.34375-9.414062-4.355468-18.515625-8.886718-26.875zm0 0"/><path d="m164.902344 348.96875c4.53125 8.367188 7.539062 17.472656 8.878906 26.890625-1.332031-9.421875-4.339844-18.527344-8.878906-26.890625zm0 0"/></g><path d="m473.222656 57.378906c-1.148437-2.296875-3.328125-3.90625-5.863281-4.320312-2.535156-.414063-5.117187.410156-6.9375 2.222656l-39.601563 39.601562c-9.371093 9.375-24.570312 9.375-33.941406 0-9.375-9.375-9.375-24.570312 0-33.945312l39.597656-39.589844c1.816407-1.820312 2.644532-4.394531 2.234376-6.929687-.410157-2.535157-2.011719-4.71875-4.304688-5.871094-30.082031-15.117187-66.464844-9.226563-90.242188 14.609375l-9.527343 9.503906c-16.554688 16.464844-25.832031 38.871094-25.765625 62.222656.019531 3.253907.234375 6.503907.640625 9.734376l-4.160157 8.378906c-11.167968 22.324218-25.871093 42.699218-43.546874 60.328125l-78.734376 78.726562c-17.613281 17.6875-38 32.378907-60.351562 43.488281l-8.304688 4.214844c-3.242187-.398437-6.503906-.609375-9.769531-.632812-23.34375-.066406-45.75 9.210937-62.214843 25.761718l-9.511719 9.496094c-23.832031 23.777344-29.726563 60.160156-14.625 90.246094 1.152343 2.296875 3.335937 3.898438 5.871093 4.308594 2.535157.410156 5.113282-.421875 6.929688-2.234375l39.601562-39.601563c6.046876-6.144531 14.921876-8.574218 23.257813-6.363281 8.332031 2.210937 14.839844 8.71875 17.046875 17.050781 2.207031 8.335938-.222656 17.210938-6.371094 23.257813l-39.574218 39.589843c-1.8125 1.820313-2.640626 4.402344-2.226563 6.933594.410156 2.535156 2.015625 4.71875 4.3125 5.867188 30.089844 15.042968 66.429687 9.15625 90.234375-14.613282l9.496094-9.496093c18.957031-18.832031 28.203125-45.335938 25.070312-71.875l4.273438-8.503907c11.132812-22.316406 25.8125-42.6875 43.464844-60.3125l78.71875-78.695312c17.644531-17.640625 38.019531-32.320312 60.34375-43.472656l8.382812-4.214844c3.359375.394531 6.738281.601562 10.121094.625 23.226562.019531 45.492187-9.246094 61.847656-25.738281l9.496094-9.503907c23.792968-23.796874 29.6875-60.15625 14.632812-90.253906zm-327.664062 380.632813-9.496094 9.527343c-15.988281 15.945313-39.347656 21.992188-61.066406 15.808594l30.960937-30.960937c15.507813-15.636719 15.457031-40.871094-.113281-56.445313-15.570312-15.574218-40.804688-15.632812-56.445312-.128906l-30.976563 30.925781c-6.238281-21.714843-.183594-45.105469 15.808594-61.0625l9.511719-9.496093c28.152343-28.03125 73.664062-28.03125 101.816406 0 7.996094 7.988281 13.96875 17.773437 17.421875 28.535156 1.3125 3.992187 2.273437 8.09375 2.875 12.253906 3.324219 22.417969-4.210938 45.082031-20.296875 61.042969zm151.527344-219.410157-78.71875 78.722657c-16.722657 16.691406-30.957032 35.703125-42.273438 56.445312-.113281-.277343-.265625-.542969-.382812-.800781-.875-2.085938-1.824219-4.148438-2.863282-6.167969-.457031-.894531-.960937-1.765625-1.457031-2.644531-.800781-1.410156-1.601563-2.800781-2.472656-4.167969-.625-.976562-1.257813-1.9375-1.914063-2.890625-.863281-1.246094-1.78125-2.472656-2.71875-3.679687-.710937-.925781-1.40625-1.863281-2.160156-2.757813-1.167969-1.394531-2.398438-2.738281-3.679688-4.066406-.535156-.566406-1.007812-1.175781-1.597656-1.726562-.59375-.550782-1.1875-1.046876-1.769531-1.601563-1.3125-1.238281-2.625-2.472656-4-3.625-.929687-.796875-1.894531-1.503906-2.855469-2.246094-1.160156-.886719-2.328125-1.769531-3.519531-2.601562-1.015625-.703125-2.042969-1.375-3.082031-2.03125-1.246094-.800781-2.511719-1.535157-3.792969-2.253907-1.023437-.578124-2.03125-1.160156-3.070313-1.6875-1.601562-.800781-3.160156-1.523437-4.800781-2.226562-.6875-.296875-1.34375-.671875-2.046875-.953125 20.75-11.285156 39.757813-25.523437 56.421875-42.261719l78.714844-78.703125c16.726563-16.679687 30.96875-35.671875 42.296875-56.402343.351562.863281.796875 1.679687 1.183594 2.539062.613281 1.398438 1.238281 2.789062 1.933594 4.148438.578124 1.144531 1.21875 2.257812 1.847656 3.371093.632812 1.109375 1.34375 2.320313 2.058594 3.453125.710937 1.136719 1.445312 2.25 2.207031 3.34375.757812 1.097656 1.535156 2.113282 2.335937 3.152344.800782 1.042969 1.601563 2.160156 2.503906 3.203125.902344 1.039063 1.863282 2.070313 2.808594 3.09375.800782.855469 1.511719 1.753906 2.335938 2.578125.648437.644531 1.351562 1.199219 2.015625 1.824219 1.28125 1.199219 2.558593 2.398437 3.894531 3.503906.738281.613281 1.503906 1.183594 2.257812 1.765625 1.4375 1.128906 2.902344 2.214844 4.398438 3.25.722656.496094 1.457031.972656 2.191406 1.445312 1.671875 1.066407 3.375 2.078126 5.113282 3.035157.609374.335937 1.207031.679687 1.816406 1 2.398437 1.230469 4.800781 2.398437 7.246094 3.375-20.71875 11.320312-39.714844 25.546875-56.40625 42.246093zm167.582031-116.328124c-2.039063 12.898437-8.128907 24.8125-17.390625 34.015624l-9.496094 9.496094c-15.953125 16.101563-38.621094 23.644532-61.039062 20.3125-11.476563-1.589844-22.398438-5.945312-31.816407-12.695312l-.183593-.128906c-2.910157-2.117188-5.65625-4.445313-8.222657-6.96875-.1875-.183594-.378906-.335938-.5625-.519532-11.066406-11.015625-18.203125-25.367187-20.3125-40.839844-.515625-3.328124-.78125-6.691406-.796875-10.0625-.054687-19.105468 7.535156-37.4375 21.078125-50.914062l9.535157-9.511719c15.949218-16.003906 39.347656-22.058593 61.058593-15.796875l-30.96875 30.964844c-10.179687 10.089844-14.183593 24.855469-10.492187 38.707031 3.6875 13.847657 14.503906 24.664063 28.355468 28.355469 13.847657 3.6875 28.613282-.3125 38.703126-10.492188l30.96875-30.960937c2.523437 8.785156 3.066406 18.019531 1.582031 27.039063zm0 0" fill="#1e81ce"/></svg>