<?xml version="1.0" encoding="iso-8859-1"?>
<!-- Generator: Adobe Illustrator 18.0.0, SVG Export Plug-In . SVG Version: 6.00 Build 0)  -->
<!DOCTYPE svg PUBLIC "-//W3C//DTD SVG 1.1//EN" "http://www.w3.org/Graphics/SVG/1.1/DTD/svg11.dtd">
<svg version="1.1" id="Capa_1" xmlns="http://www.w3.org/2000/svg" xmlns:xlink="http://www.w3.org/1999/xlink" x="0px" y="0px"
	 viewBox="0 0 414.789 414.789" style="enable-background:new 0 0 414.789 414.789;" xml:space="preserve">
<g>
	<path style="fill:none;" d="M78.279,144.455v216.821h80.21V232.593c0-6.627,5.373-12,12-12h73.814c6.627,0,12,5.373,12,12v128.683
		h80.209v-216.82L207.395,56.083L78.279,144.455z"/>
	<rect x="182.488" y="244.593" style="fill:#73D0F4;" width="49.814" height="116.683"/>
	<polygon style="fill:#73D0F4;" points="302.067,91.796 336.512,115.373 336.512,57.883 302.067,57.883 	"/>
	<path style="fill:#3D6889;" d="M409.566,165.374l-49.054-33.574V45.883c0-6.627-5.373-12-12-12h-58.445c-6.628,0-12,5.373-12,12
		v29.487c0,0-62.987-43.156-63.812-43.731c-3.974-2.769-9.405-2.899-13.638,0L5.223,165.374c-5.469,3.743-6.868,11.211-3.125,16.68
		c2.325,3.397,6.086,5.224,9.914,5.224c2.335,0,4.695-0.68,6.767-2.099l35.499-24.297v212.394c0,6.627,5.373,12,12,12h282.233
		c6.627,0,12-5.373,12-12V160.881l35.499,24.297c2.073,1.419,4.432,2.099,6.767,2.099c3.827,0,7.589-1.827,9.914-5.224
		C416.434,176.585,415.035,169.117,409.566,165.374z M232.303,361.276h-49.814V244.593h49.814V361.276z M336.512,361.276h-80.209
		V232.593c0-6.627-5.373-12-12-12h-73.814c-6.627,0-12,5.373-12,12v128.683h-80.21V144.455l129.117-88.372l129.117,88.373V361.276z
		 M336.512,115.373l-34.445-23.576V57.883h34.445V115.373z"/>
</g>
</svg>
