<?xml version="1.0" encoding="iso-8859-1"?>
<!-- Generator: Adobe Illustrator 19.0.0, SVG Export Plug-In . SVG Version: 6.00 Build 0)  -->
<svg version="1.1" id="Layer_1" xmlns="http://www.w3.org/2000/svg" xmlns:xlink="http://www.w3.org/1999/xlink" x="0px" y="0px"
	 viewBox="0 0 512.001 512.001" style="enable-background:new 0 0 512.001 512.001;" xml:space="preserve">
<g>
	<path style="fill:#6FC5D6;" d="M82.972,269.94l-50.16,50.16c-43.749,43.749-43.749,115.338,0,159.088s115.338,43.749,159.088,0
		l50.16-50.16c43.749-43.749,43.749-115.338,0-159.088S126.722,226.191,82.972,269.94z M210.243,397.211l-50.16,50.16
		c-26.316,26.316-69.137,26.316-95.453,0c-26.316-26.316-26.316-69.137,0-95.453l50.16-50.16c26.316-26.316,69.137-26.316,95.453,0
		C236.559,328.074,236.559,370.894,210.243,397.211z"/>
	<path style="fill:#6FC5D6;" d="M320.101,32.812l-50.16,50.16c-43.749,43.749-43.749,115.338,0,159.088s115.338,43.749,159.088,0
		l50.16-50.16c43.749-43.749,43.749-115.338,0-159.088S363.85-10.937,320.101,32.812z M447.371,160.083l-50.16,50.16
		c-26.316,26.316-69.137,26.316-95.453,0c-26.316-26.316-26.316-69.137,0-95.453l50.16-50.16c26.316-26.316,69.137-26.316,95.453,0
		C473.688,90.946,473.688,133.766,447.371,160.083z"/>
</g>
<path style="fill:#609399;" d="M357.449,186.369c8.786-8.787,8.786-23.032,0-31.817c-8.787-8.787-23.032-8.787-31.817,0
	c-0.588,0.588-170.654,170.654-171.081,171.081c-8.787,8.787-8.787,23.032,0,31.817c8.786,8.786,23.032,8.787,31.817,0
	C186.776,357.043,356.833,186.986,357.449,186.369z"/>
</svg>
