<?xml version="1.0" encoding="iso-8859-1"?>
<!-- Generator: Adobe Illustrator 19.0.0, SVG Export Plug-In . SVG Version: 6.00 Build 0)  -->
<svg version="1.1" id="Capa_1" xmlns="http://www.w3.org/2000/svg" xmlns:xlink="http://www.w3.org/1999/xlink" x="0px" y="0px"
	 viewBox="0 0 512 512" style="enable-background:new 0 0 512 512;" xml:space="preserve">
<path style="fill:#F2F2F2;" d="M512,256c0,36.937-7.826,72.056-21.911,103.769c-2.288,5.183-4.765,10.271-7.387,15.266
	C439.85,456.474,354.408,512,256,512c-103.685,0-192.972-61.639-233.221-150.277c-7.022-15.464-12.549-31.744-16.394-48.661
	C2.205,294.713,0,275.613,0,256C0,114.615,114.615,0,256,0c115.012,0,212.302,75.839,244.611,180.245
	c1.024,3.323,1.985,6.687,2.884,10.073v0.01c1.672,6.332,3.114,12.737,4.305,19.247c0.554,3.03,1.055,6.071,1.494,9.132
	c0.303,2.048,0.585,4.096,0.825,6.165c0.46,3.699,0.825,7.429,1.118,11.18C511.739,242.636,512,249.292,512,256z"/>
<g>
	<path style="fill:#5181A2;" d="M367.961,77.614c0,0,7.42,7.632,8.691,13.355c0,0,5.3-4.028,1.696-10.387
		C374.744,74.222,367.961,77.614,367.961,77.614z"/>
	<path style="fill:#5181A2;" d="M503.495,190.318c-6.666-3.354-12.727-5.339-17.471-6.51c-6.416-1.588-11.609-6.311-13.855-12.528
		c-2.884-7.973-8.255-20.888-18.139-40.458c-19.508-38.578-41.127-50.448-55.327-60.416c-9.32-6.541-21.567-7.868-28.881-8.014
		c-3.688-0.073-7.241-1.421-10.073-3.793c-7.45-6.269-22.1-13.636-26.76-10.877c-5.726,3.396,0,11.243,8.046,21.201
		c8.056,9.968,9.759,20.992,15.475,35.83c2.644,6.844,5.831,10.982,8.485,13.448c2.779,2.591,3.688,6.614,2.215,10.104
		c-5.371,12.696-7.168,28.776-4.127,43.645c3.605,17.596,11.87,17.387,11.87,17.387c-0.846-23.531,11.452-33.708,11.452-33.708
		c11.233,34.335,36.885,59.988,36.885,59.988c-20.773-7.419-36.247-41.336-36.247-41.336s-1.693,1.693-3.177,12.936
		c-1.484,11.233-15.057,18.014-25.015-6.572c-9.968-24.597,2.967-55.547,2.967-55.547c-5.726-2.968-17.596-30.312-17.596-34.555
		c0-4.232-4.671-13.563-10.386-19.289c-5.726-5.716-16.959-22.256-3.814-29.884c13.134-7.638,39.215,12.925,39.215,12.925
		c41.127-1.484,83.519,48.546,90.3,66.351c6.781,17.805,25.861,53.426,25.861,53.426c5.413,1.641,10.501,3.762,15.214,6.175
		C501.635,183.568,502.596,186.932,503.495,190.318z"/>
	<path style="fill:#5181A2;" d="M511.237,236.053c-0.209-0.094-0.408-0.199-0.606-0.293c-13.145-6.363-18.442-19.717-18.442-19.717
		c3.406-3.406,9.446-5.36,15.611-6.468c0.554,3.03,1.055,6.071,1.494,9.132c-2.299,0.449-3.751,0.721-3.751,0.721
		c0,1.296,1.808,3.229,4.577,5.444C510.579,228.571,510.945,232.302,511.237,236.053z"/>
</g>
<g>
	<path style="fill:#FFA600;" d="M133.371,374.659H113.34c0,0,0-45.777-6.677-100.153L75.18,374.659H58.964l-31.953-99.673
		c0,0-3.72,29.288-4.232,86.737c-7.022-15.464-12.549-31.744-16.394-48.661c1.473-21.264,3.542-44.44,6.322-63.352h26.07
		l29.727,92.526l31.483-92.526h23.845C123.831,249.71,133.371,331.264,133.371,374.659z"/>
	<path style="fill:#FFA600;" d="M144.423,283.452l20.668-0.318c0,0,23.212,69.637,20.987,78.222c0,0,14.945-41.655,18.761-78.222
		h20.35c0,0-10.812,73.771-43.88,112.564c-12.375,14.517-26.262,14.695-38.799,9.236v-11.143c0,0,17.177,6.042,26.081-6.678
		c7.168-10.24,0.322-27.898-5.938-46.671C161.135,335.896,144.423,283.452,144.423,283.452z"/>
</g>
<g>
	<path style="fill:#5181A2;" d="M237.908,365.491l5.405-10.812c0,0,37.204,16.534,46.742,0c9.539-16.534,0.318-25.438-18.442-35.296
		c-18.76-9.858-38.475-22.258-29.89-49.287c8.586-27.028,54.056-25.12,67.093-12.083l-4.451,10.493c0,0-33.705-14.309-42.926,4.451
		c-9.221,18.76,15.263,27.664,20.987,30.208c5.724,2.544,37.521,15.58,34.024,38.793s-17.807,37.521-50.558,34.659
		C254.124,373.758,247.447,371.85,237.908,365.491z"/>
	<path style="fill:#5181A2;" d="M405.452,367c14.054-11.295,20.083-31.389,20.083-54.293c0-35.328-10.167-63.969-50.333-63.969
		c-34.586,0-50.333,28.641-50.333,63.969s11.515,63.969,50.333,63.969c5.622,0,10.721-0.7,15.318-2.017l29.905,17.544l7.314-14.315
		L405.452,367z M375.202,361.357c-22.507,0-29.184-21.786-29.184-48.65c0-26.875,6.363-48.65,29.184-48.65
		c23.28,0,29.174,21.776,29.174,48.65C404.375,339.571,398.482,361.357,375.202,361.357z"/>
	<path style="fill:#5181A2;" d="M490.088,359.769c-2.288,5.183-4.765,10.271-7.387,15.266h-39.382V250.378h19.717v109.39H490.088z"
		/>
</g>
</svg>
