<?xml version="1.0" encoding="iso-8859-1"?>
<!-- Generator: Adobe Illustrator 19.0.0, SVG Export Plug-In . SVG Version: 6.00 Build 0)  -->
<svg version="1.1" id="Capa_1" xmlns="http://www.w3.org/2000/svg" xmlns:xlink="http://www.w3.org/1999/xlink" x="0px" y="0px"
	 viewBox="0 0 512 512" style="enable-background:new 0 0 512 512;" xml:space="preserve">
<g>
	<g>
		<g>
			<path d="M496,200h-47.944c-4.084-13.958-9.683-27.427-16.696-40.168l33.944-33.936c6.246-6.248,6.246-16.376,0-22.624
				l-56.568-56.576c-6.248-6.246-16.376-6.246-22.624,0L352.16,80.64c-12.735-7.016-26.203-12.613-40.16-16.688V16
				c0-8.837-7.163-16-16-16h-80c-8.837,0-16,7.163-16,16v47.952c-13.957,4.08-27.424,9.679-40.16,16.696l-33.944-33.952
				c-6.248-6.246-16.376-6.246-22.624,0l-56.576,56.576c-6.241,6.247-6.241,16.369,0,22.616l33.944,33.944
				C73.625,172.571,68.029,186.041,63.952,200H16c-8.837,0-16,7.163-16,16v80c0,8.837,7.163,16,16,16h47.952
				c4.075,13.957,9.672,27.425,16.688,40.16l-33.944,33.952c-6.246,6.248-6.246,16.376,0,22.624l56.568,56.568
				c6.248,6.246,16.376,6.246,22.624,0l33.944-33.944c12.741,7.013,26.21,12.612,40.168,16.696V496c0,8.837,7.163,16,16,16h80
				c8.837,0,16-7.163,16-16v-47.944c13.958-4.084,27.427-9.683,40.168-16.696l33.944,33.944c6.248,6.246,16.376,6.246,22.624,0
				l56.568-56.568c6.246-6.248,6.246-16.376,0-22.624l-33.944-33.944c7.014-12.74,12.613-26.21,16.696-40.168H496
				c8.837,0,16-7.163,16-16v-80C512,207.163,504.837,200,496,200z M496,296h-54.048c-3.664,0.003-6.858,2.495-7.752,6.048
				c-4.298,16.657-10.929,32.623-19.696,47.424c-1.86,3.142-1.356,7.145,1.224,9.728l38.264,38.224l-56.568,56.568l-38.264-38.264
				c-2.583-2.58-6.586-3.084-9.728-1.224c-14.804,8.762-30.769,15.392-47.424,19.696c-3.537,0.909-6.01,4.099-6.008,7.752V496h-80
				v-54.048c0.003-3.65-2.466-6.839-6-7.752c-16.659-4.301-32.627-10.931-47.432-19.696c-1.229-0.732-2.633-1.119-4.064-1.12
				c-2.124-0.002-4.162,0.842-5.664,2.344l-38.264,38.264l-56.568-56.568l38.264-38.264c2.583-2.581,3.09-6.584,1.232-9.728
				c-8.767-14.803-15.403-30.768-19.712-47.424c-0.909-3.535-4.094-6.006-7.744-6.008H16v-80h54.048
				c3.647-0.001,6.832-2.469,7.744-6c4.306-16.659,10.942-32.628,19.712-47.432c1.858-3.144,1.351-7.147-1.232-9.728l-38.264-38.264
				l56.568-56.568l38.264,38.264c2.581,2.583,6.584,3.09,9.728,1.232c14.804-8.77,30.773-15.406,47.432-19.712
				c3.531-0.912,5.999-4.097,6-7.744V16h80v54.048c0.007,3.661,2.497,6.851,6.048,7.744c16.656,4.309,32.621,10.945,47.424,19.712
				c3.144,1.858,7.147,1.351,9.728-1.232l38.224-38.264l56.568,56.568l-38.264,38.264c-2.58,2.583-3.084,6.586-1.224,9.728
				c8.765,14.805,15.395,30.773,19.696,47.432c0.913,3.534,4.102,6.003,7.752,6H496V296z"/>
			<path d="M256,104c-83.909,0.093-151.907,68.091-152,152h16c0.084-75.076,60.924-135.916,136-136V104z"/>
			<path d="M256,392v16c83.909-0.093,151.907-68.091,152-152h-16C391.916,331.076,331.076,391.916,256,392z"/>
			<path d="M336,328V192c0-21.984-41.472-32-80-32s-80,10.016-80,32v136c0,21.984,41.472,32,80,32S336,349.984,336,328z M256,176
				c41.992,0,64,11.888,64,16s-22,16-64,16s-64-11.888-64-16S214,176,256,176z M192,212.225C207.596,220.224,232.351,224,256,224
				s48.404-3.776,64-11.775V256c0,4.112-22,16-64,16s-64-11.888-64-16V212.225z M192,328v-51.775
				C207.596,284.224,232.351,288,256,288s48.404-3.776,64-11.775V328c0,4.112-22,16-64,16S192,332.112,192,328z"/>
		</g>
	</g>
</g>
</svg>
