<?xml version="1.0" encoding="iso-8859-1"?>
<!-- Generator: Adobe Illustrator 18.0.0, SVG Export Plug-In . SVG Version: 6.00 Build 0)  -->
<!DOCTYPE svg PUBLIC "-//W3C//DTD SVG 1.1//EN" "http://www.w3.org/Graphics/SVG/1.1/DTD/svg11.dtd">
<svg version="1.1" id="Capa_1" xmlns="http://www.w3.org/2000/svg" xmlns:xlink="http://www.w3.org/1999/xlink" x="0px" y="0px"
	 viewBox="0 0 491.556 491.556" style="enable-background:new 0 0 491.556 491.556;" xml:space="preserve">
<path id="XMLID_680_" d="M480.537,132.385c-6.372-2.813-13.814-1.418-18.729,3.502l-49.891,49.868l-91.012-16.093l-16.101-91.018
	l49.894-49.867c4.911-4.921,6.307-12.356,3.5-18.728c-2.805-6.364-9.258-10.36-16.197-10.029
	C308,1.608,274.485,15.334,248.51,41.316c-39.887,39.872-50.913,97.498-33.435,147.364L19.369,384.429
	c-24.516,24.5-24.516,64.24,0,88.749c11.756,11.764,27.712,18.378,44.363,18.378c16.635,0,32.605-6.615,44.361-18.37l196.679-196.68
	c49.196,16.044,105.395,4.654,144.471-34.447c25.976-25.968,39.708-59.475,41.314-93.468
	C490.864,141.644,486.909,135.206,480.537,132.385z M94.214,435.747c-10.328,10.329-27.094,10.329-37.422,0
	c-10.346-10.344-10.346-27.094,0-37.439c10.328-10.327,27.094-10.327,37.422,0C104.544,408.653,104.544,425.402,94.214,435.747z"/>
</svg>
