<?xml version="1.0" encoding="iso-8859-1"?>
<!-- Generator: Adobe Illustrator 19.1.0, SVG Export Plug-In . SVG Version: 6.00 Build 0)  -->
<svg version="1.1" id="Capa_1" xmlns="http://www.w3.org/2000/svg" xmlns:xlink="http://www.w3.org/1999/xlink" x="0px" y="0px"
	 viewBox="0 0 395 395" style="enable-background:new 0 0 395 395;" xml:space="preserve">
<g>
	<path d="M395,279.46V382.5c0,4.14-3.36,7.5-7.5,7.5H7.5c-4.15,0-7.5-3.36-7.5-7.5V279.46c0-4.14,3.35-7.5,7.5-7.5h21.87v-15.44H7.5
		c-4.15,0-7.5-3.36-7.5-7.5V145.98c0-4.14,3.35-7.5,7.5-7.5h21.87v-15.44H7.5c-4.15,0-7.5-3.36-7.5-7.5V12.5C0,8.36,3.35,5,7.5,5
		h380c4.14,0,7.5,3.36,7.5,7.5v103.04c0,4.14-3.36,7.5-7.5,7.5h-21.87v15.44h21.87c4.14,0,7.5,3.36,7.5,7.5v103.04
		c0,4.14-3.36,7.5-7.5,7.5h-21.87v15.44h21.87C391.64,271.96,395,275.32,395,279.46z M380,375v-88.04h-39.17V375H380z M380,241.52
		v-88.04h-39.17v88.04H380z M380,108.04V20h-39.17v88.04H380z M350.63,271.96v-15.44H44.37v15.44H350.63z M350.63,138.48v-15.44
		H44.37v15.44H350.63z M325.83,375v-88.04h-39.01V375H325.83z M325.83,241.52v-88.04h-39.01v88.04H325.83z M325.83,108.04V20h-39.01
		v88.04H325.83z M271.82,375v-88.04H15V375H271.82z M271.82,241.52v-88.04H15v88.04H271.82z M271.82,108.04V20H15v88.04H271.82z"/>
	<rect x="340.83" y="286.96" style="fill:#3DD0F2;" width="39.17" height="88.04"/>
	<rect x="340.83" y="153.48" style="fill:#3DD0F2;" width="39.17" height="88.04"/>
	<rect x="340.83" y="20" style="fill:#3DD0F2;" width="39.17" height="88.04"/>
	<path style="fill:#3DD0F2;" d="M271.82,286.96V375H15v-88.04H271.82z M75,330.98c0-1.97-0.8-3.91-2.2-5.3
		c-1.4-1.4-3.33-2.2-5.3-2.2c-1.98,0-3.91,0.8-5.31,2.2c-1.39,1.4-2.19,3.33-2.19,5.3s0.8,3.91,2.19,5.3c1.4,1.4,3.33,2.2,5.31,2.2
		c1.97,0,3.9-0.8,5.3-2.2C74.2,334.89,75,332.96,75,330.98z M51,330.98c0-1.97-0.8-3.9-2.2-5.3c-1.4-1.4-3.33-2.2-5.3-2.2
		c-1.98,0-3.91,0.8-5.31,2.2c-1.39,1.39-2.19,3.33-2.19,5.3c0,1.98,0.8,3.91,2.19,5.3c1.4,1.4,3.33,2.2,5.31,2.2
		c1.97,0,3.9-0.8,5.3-2.2C50.2,334.89,51,332.95,51,330.98z"/>
	<path style="fill:#3DD0F2;" d="M271.82,153.48v88.04H15v-88.04H271.82z M75,197.5c0-1.97-0.8-3.91-2.2-5.3
		c-1.4-1.4-3.33-2.2-5.3-2.2c-1.98,0-3.91,0.8-5.31,2.2c-1.39,1.39-2.19,3.33-2.19,5.3c0,1.98,0.8,3.91,2.19,5.3
		c1.4,1.4,3.33,2.2,5.31,2.2c1.97,0,3.9-0.8,5.3-2.2C74.2,201.41,75,199.48,75,197.5z M51,197.5c0-1.97-0.8-3.91-2.2-5.3
		c-1.4-1.4-3.33-2.2-5.3-2.2c-1.98,0-3.91,0.8-5.31,2.2c-1.39,1.39-2.19,3.33-2.19,5.3s0.8,3.91,2.19,5.3c1.4,1.4,3.33,2.2,5.31,2.2
		c1.97,0,3.9-0.8,5.3-2.2C50.2,201.41,51,199.47,51,197.5z"/>
	<path style="fill:#3DD0F2;" d="M271.82,20v88.04H15V20H271.82z M75,64.02c0-1.97-0.8-3.91-2.2-5.3c-1.4-1.4-3.33-2.2-5.3-2.2
		c-1.98,0-3.91,0.8-5.31,2.2C60.8,60.11,60,62.05,60,64.02c0,1.97,0.8,3.91,2.19,5.3c1.4,1.4,3.33,2.2,5.31,2.2
		c1.97,0,3.9-0.8,5.3-2.2C74.2,67.93,75,65.99,75,64.02z M51,64.02c0-1.97-0.8-3.91-2.2-5.3c-1.4-1.4-3.33-2.2-5.3-2.2
		c-1.98,0-3.91,0.8-5.31,2.2C36.8,60.11,36,62.05,36,64.02c0,1.97,0.8,3.91,2.19,5.3c1.4,1.4,3.33,2.2,5.31,2.2
		c1.97,0,3.9-0.8,5.3-2.2C50.2,67.93,51,65.99,51,64.02z"/>
	<path d="M72.8,58.72c1.4,1.39,2.2,3.33,2.2,5.3c0,1.97-0.8,3.91-2.2,5.3c-1.4,1.4-3.33,2.2-5.3,2.2c-1.98,0-3.91-0.8-5.31-2.2
		C60.8,67.93,60,65.99,60,64.02c0-1.97,0.8-3.91,2.19-5.3c1.4-1.4,3.33-2.2,5.31-2.2C69.47,56.52,71.4,57.32,72.8,58.72z"/>
	<path d="M72.8,192.2c1.4,1.39,2.2,3.33,2.2,5.3c0,1.98-0.8,3.91-2.2,5.3c-1.4,1.4-3.33,2.2-5.3,2.2c-1.98,0-3.91-0.8-5.31-2.2
		c-1.39-1.39-2.19-3.32-2.19-5.3c0-1.97,0.8-3.91,2.19-5.3c1.4-1.4,3.33-2.2,5.31-2.2C69.47,190,71.4,190.8,72.8,192.2z"/>
	<path d="M72.8,325.68c1.4,1.39,2.2,3.33,2.2,5.3c0,1.98-0.8,3.91-2.2,5.3c-1.4,1.4-3.33,2.2-5.3,2.2c-1.98,0-3.91-0.8-5.31-2.2
		c-1.39-1.39-2.19-3.33-2.19-5.3s0.8-3.9,2.19-5.3c1.4-1.4,3.33-2.2,5.31-2.2C69.47,323.48,71.4,324.28,72.8,325.68z"/>
	<path d="M48.8,58.72c1.4,1.39,2.2,3.33,2.2,5.3c0,1.97-0.8,3.91-2.2,5.3c-1.4,1.4-3.33,2.2-5.3,2.2c-1.98,0-3.91-0.8-5.31-2.2
		C36.8,67.93,36,65.99,36,64.02c0-1.97,0.8-3.91,2.19-5.3c1.4-1.4,3.33-2.2,5.31-2.2C45.47,56.52,47.4,57.32,48.8,58.72z"/>
	<path d="M48.8,192.2c1.4,1.39,2.2,3.33,2.2,5.3s-0.8,3.91-2.2,5.3c-1.4,1.4-3.33,2.2-5.3,2.2c-1.98,0-3.91-0.8-5.31-2.2
		c-1.39-1.39-2.19-3.33-2.19-5.3s0.8-3.91,2.19-5.3c1.4-1.4,3.33-2.2,5.31-2.2C45.47,190,47.4,190.8,48.8,192.2z"/>
	<path d="M48.8,325.68c1.4,1.4,2.2,3.33,2.2,5.3s-0.8,3.91-2.2,5.3c-1.4,1.4-3.33,2.2-5.3,2.2c-1.98,0-3.91-0.8-5.31-2.2
		c-1.39-1.39-2.19-3.32-2.19-5.3c0-1.97,0.8-3.91,2.19-5.3c1.4-1.4,3.33-2.2,5.31-2.2C45.47,323.48,47.4,324.28,48.8,325.68z"/>
</g>
</svg>
