<?xml version="1.0" encoding="iso-8859-1"?>
<!-- Generator: Adobe Illustrator 16.0.0, SVG Export Plug-In . SVG Version: 6.00 Build 0)  -->
<!DOCTYPE svg PUBLIC "-//W3C//DTD SVG 1.1//EN" "http://www.w3.org/Graphics/SVG/1.1/DTD/svg11.dtd">
<svg version="1.1" id="Capa_1" xmlns="http://www.w3.org/2000/svg" xmlns:xlink="http://www.w3.org/1999/xlink" x="0px" y="0px"
	 width="548.29px" height="548.291px" viewBox="0 0 548.29 548.291" style="enable-background:new 0 0 548.29 548.291;"
	 xml:space="preserve">
<g>
	<g>
		<path d="M276.043,244.216c-24.575,0-38.741,24.087-38.741,53.862c-0.241,30.228,14.407,53.382,38.5,53.382
			c24.323,0,38.512-22.92,38.512-54.091C314.313,268.303,300.604,244.216,276.043,244.216z"/>
		<path d="M486.2,196.116h-13.164V132.59c0-0.399-0.064-0.795-0.116-1.2c-0.021-2.52-0.824-4.997-2.551-6.96L364.656,3.677
			c-0.031-0.031-0.064-0.044-0.085-0.075c-0.629-0.704-1.364-1.29-2.141-1.796c-0.231-0.154-0.462-0.283-0.704-0.419
			c-0.672-0.365-1.386-0.672-2.121-0.893c-0.199-0.052-0.377-0.134-0.576-0.186C358.229,0.118,357.4,0,356.562,0H96.757
			C84.893,0,75.256,9.649,75.256,21.502v174.613H62.093c-16.967,0-30.733,13.756-30.733,30.733v159.812
			c0,16.961,13.766,30.731,30.733,30.731h13.163V526.79c0,11.854,9.637,21.501,21.501,21.501h354.777
			c11.853,0,21.502-9.647,21.502-21.501V417.392H486.2c16.977,0,30.729-13.771,30.729-30.731V226.849
			C516.93,209.872,503.177,196.116,486.2,196.116z M96.757,21.502h249.053v110.006c0,5.943,4.818,10.751,10.751,10.751h94.973
			v53.861H96.757V21.502z M353.033,376.96l-10.394,27.884c-22.666-6.619-41.565-13.479-62.828-22.445
			c-3.527-1.418-7.317-2.132-11.094-2.362c-35.909-2.352-69.449-28.819-69.449-80.778c0-47.711,30.236-83.623,77.71-83.623
			c48.675,0,75.351,36.854,75.351,80.317c0,36.142-16.766,61.638-37.785,71.091v0.945
			C326.828,371.528,340.519,374.367,353.033,376.96z M72.912,370.116l7.328-29.764c9.69,4.96,24.554,9.915,39.917,9.915
			c16.525,0,25.271-6.84,25.271-17.228c0-9.928-7.56-15.597-26.691-22.442c-26.457-9.217-43.696-23.858-43.696-47.014
			c0-27.163,22.68-47.948,60.231-47.948c17.954,0,31.184,3.791,40.623,8.03l-8.021,29.061c-6.375-3.076-17.711-7.564-33.3-7.564
			c-15.599,0-23.163,7.079-23.163,15.357c0,10.15,8.977,14.646,29.533,22.447c28.108,10.394,41.332,25.023,41.332,47.464
			c0,26.699-20.557,49.365-64.253,49.365C99.844,379.785,81.899,375.06,72.912,370.116z M451.534,520.962H96.757v-103.57h354.777
			V520.962z M475.387,377.428h-99.455V218.231h36.158v128.97h63.297V377.428z"/>
	</g>
</g>
</svg>
