<?xml version="1.0" encoding="iso-8859-1"?>
<!-- Generator: Adobe Illustrator 18.1.1, SVG Export Plug-In . SVG Version: 6.00 Build 0)  -->
<svg version="1.1" id="Capa_1" xmlns="http://www.w3.org/2000/svg" xmlns:xlink="http://www.w3.org/1999/xlink" x="0px" y="0px"
	 viewBox="0 0 26 26" style="enable-background:new 0 0 26 26;" xml:space="preserve">
<g>
	<path style="fill:#030104;" d="M23,2H3C1.344,2,0,3.343,0,5v16c0,1.656,1.344,3,3,3h20c1.656,0,3-1.344,3-3V5
		C26,3.343,24.656,2,23,2z M24,21c0,0.551-0.449,1-1,1H3c-0.551,0-1-0.449-1-1V7h22V21z"/>
	<path style="fill:#030104;" d="M19.402,14.215c0,1.029-0.125,1.926-0.374,2.691c-0.147,0.453-0.464,1.16-0.935,2.094h1.166
		c0.546-0.87,0.923-1.553,1.109-2.024c0.335-0.826,0.502-1.766,0.502-2.819c0-0.402-0.036-0.82-0.109-1.255
		c-0.073-0.434-0.195-0.874-0.366-1.318c-0.135-0.359-0.261-0.642-0.376-0.847c-0.069-0.121-0.224-0.377-0.446-0.736h-1.206
		c0.276,0.565,0.482,1.035,0.603,1.391C19.258,12.245,19.402,13.187,19.402,14.215z"/>
	<path style="fill:#030104;" d="M6.563,14.215c0,1.029,0.125,1.926,0.374,2.691C7.084,17.359,7.4,18.066,7.871,19H6.705
		c-0.546-0.87-0.923-1.553-1.109-2.024c-0.335-0.826-0.502-1.766-0.502-2.819c0-0.402,0.036-0.82,0.109-1.255
		c0.073-0.434,0.195-0.874,0.366-1.318c0.135-0.359,0.261-0.642,0.376-0.847c0.07-0.122,0.224-0.378,0.447-0.737h1.206
		c-0.276,0.565-0.482,1.035-0.603,1.391C6.707,12.245,6.563,13.187,6.563,14.215z"/>
	<g>
		<path style="fill:#030104;" d="M17.03,12.088c0,0.378-0.12,0.679-0.361,0.902s-0.535,0.335-0.882,0.335
			c-0.208,0-0.413-0.026-0.615-0.078c-0.201-0.052-0.376-0.104-0.524-0.156c-0.069,0.048-0.171,0.152-0.305,0.313
			c-0.135,0.161-0.286,0.356-0.456,0.586c0.155,0.665,0.281,1.137,0.377,1.417c0.095,0.279,0.186,0.563,0.272,0.85
			c0.074,0.228,0.183,0.407,0.325,0.536c0.144,0.129,0.369,0.193,0.678,0.193c0.113,0,0.254-0.021,0.423-0.065
			c0.17-0.043,0.309-0.087,0.417-0.13l-0.144,0.589c-0.43,0.184-0.805,0.317-1.125,0.399c-0.321,0.084-0.607,0.125-0.859,0.125
			c-0.183,0-0.362-0.018-0.541-0.052c-0.178-0.035-0.341-0.098-0.487-0.189c-0.16-0.096-0.296-0.215-0.407-0.357
			c-0.11-0.144-0.205-0.344-0.283-0.6c-0.053-0.16-0.101-0.343-0.144-0.547c-0.044-0.204-0.088-0.385-0.132-0.541
			c-0.126,0.188-0.217,0.326-0.273,0.417c-0.057,0.092-0.139,0.22-0.247,0.385c-0.343,0.525-0.641,0.899-0.893,1.123
			s-0.554,0.335-0.905,0.335c-0.265,0-0.49-0.089-0.677-0.267s-0.28-0.41-0.28-0.696c0-0.387,0.12-0.691,0.361-0.916
			c0.242-0.223,0.536-0.335,0.885-0.335c0.208,0,0.408,0.025,0.6,0.075s0.372,0.105,0.541,0.166
			c0.065-0.053,0.167-0.154,0.304-0.307c0.137-0.151,0.285-0.34,0.446-0.566c-0.145-0.581-0.262-1.02-0.354-1.315
			c-0.093-0.295-0.186-0.588-0.282-0.879c-0.078-0.232-0.191-0.412-0.339-0.538c-0.147-0.128-0.369-0.191-0.664-0.191
			c-0.131,0-0.276,0.023-0.437,0.068c-0.161,0.046-0.295,0.088-0.403,0.127l0.143-0.589c0.391-0.175,0.76-0.307,1.109-0.394
			c0.35-0.088,0.642-0.131,0.876-0.131c0.213,0,0.395,0.016,0.547,0.046c0.151,0.03,0.312,0.095,0.48,0.195
			c0.156,0.095,0.292,0.216,0.407,0.361s0.21,0.344,0.283,0.596c0.054,0.174,0.102,0.354,0.146,0.54
			c0.044,0.188,0.081,0.348,0.112,0.482c0.091-0.139,0.186-0.282,0.283-0.43s0.181-0.278,0.25-0.391
			c0.335-0.525,0.634-0.902,0.899-1.13c0.264-0.229,0.563-0.342,0.897-0.342c0.273,0,0.501,0.09,0.684,0.27
			C16.939,11.568,17.03,11.802,17.03,12.088z"/>
	</g>
</g>
</svg>
